<svg width="185" height="44" viewBox="0 0 185 44" fill="none" xmlns="http://www.w3.org/2000/svg">
<mask id="path-1-outside-1_36_201" maskUnits="userSpaceOnUse" x="-4" y="-3" width="193" height="50" fill="black">
<rect fill="white" x="-4" y="-3" width="193" height="50"/>
<path d="M42.1448 43H32.9928L29.4728 32.696H13.2808L9.76075 43H0.73675L16.1608 0.759998H26.7208L42.1448 43ZM15.2648 26.168H27.4888L21.3448 7.736L15.2648 26.168ZM64.7303 0.759998C71.3436 0.759998 76.4636 2.59467 80.0903 6.264C83.7169 9.89067 85.5303 15.096 85.5303 21.88C85.5303 28.6213 83.7169 33.8267 80.0903 37.496C76.4636 41.1653 71.3436 43 64.7303 43H48.4103V0.759998H64.7303ZM64.2823 35.96C68.2929 35.96 71.3009 34.7653 73.3063 32.376C75.3543 29.944 76.3783 26.4453 76.3783 21.88C76.3783 17.3147 75.3543 13.8373 73.3063 11.448C71.3009 9.016 68.2929 7.8 64.2823 7.8H57.2423V35.96H64.2823ZM140.362 0.759998V43H132.362V20.984L132.81 8.632H132.682L120.97 43H113.738L102.09 8.632H101.962L102.41 20.984V43H94.4103V0.759998H107.21L114.826 23.8L117.514 33.336H117.642L120.394 23.864L127.946 0.759998H140.362ZM166.772 0.119999C170.612 0.119999 173.982 0.781331 176.884 2.104C179.785 3.42666 182.26 5.38933 184.308 7.992L179.38 13.688C177.63 11.4693 175.71 9.848 173.62 8.824C171.572 7.75733 169.182 7.224 166.452 7.224C164.66 7.224 163.166 7.45867 161.972 7.928C160.82 8.39733 159.966 9.016 159.412 9.784C158.9 10.552 158.644 11.4053 158.644 12.344C158.644 13.496 159.092 14.4773 159.988 15.288C160.884 16.056 162.42 16.696 164.596 17.208L172.468 19C176.649 19.9387 179.636 21.3467 181.428 23.224C183.262 25.0587 184.18 27.448 184.18 30.392C184.18 33.1653 183.454 35.5547 182.004 37.56C180.553 39.5227 178.526 41.0373 175.924 42.104C173.321 43.128 170.334 43.64 166.964 43.64C164.02 43.64 161.31 43.2987 158.836 42.616C156.404 41.8907 154.228 40.9093 152.308 39.672C150.388 38.4347 148.788 37.0053 147.508 35.384L152.5 29.432C153.481 30.7973 154.697 32.0133 156.148 33.08C157.598 34.1467 159.241 35 161.076 35.64C162.953 36.2373 164.916 36.536 166.964 36.536C168.713 36.536 170.185 36.344 171.38 35.96C172.617 35.5333 173.534 34.9573 174.132 34.232C174.772 33.464 175.092 32.5467 175.092 31.48C175.092 30.3707 174.708 29.432 173.94 28.664C173.214 27.8533 171.849 27.2347 169.844 26.808L161.268 24.888C158.793 24.2907 156.66 23.5227 154.868 22.584C153.118 21.6027 151.774 20.3653 150.836 18.872C149.94 17.336 149.492 15.5227 149.492 13.432C149.492 10.9147 150.174 8.65333 151.54 6.648C152.905 4.64267 154.868 3.064 157.428 1.912C160.03 0.717332 163.145 0.119999 166.772 0.119999Z"/>
</mask>
<path d="M42.1448 43H32.9928L29.4728 32.696H13.2808L9.76075 43H0.73675L16.1608 0.759998H26.7208L42.1448 43ZM15.2648 26.168H27.4888L21.3448 7.736L15.2648 26.168ZM64.7303 0.759998C71.3436 0.759998 76.4636 2.59467 80.0903 6.264C83.7169 9.89067 85.5303 15.096 85.5303 21.88C85.5303 28.6213 83.7169 33.8267 80.0903 37.496C76.4636 41.1653 71.3436 43 64.7303 43H48.4103V0.759998H64.7303ZM64.2823 35.96C68.2929 35.96 71.3009 34.7653 73.3063 32.376C75.3543 29.944 76.3783 26.4453 76.3783 21.88C76.3783 17.3147 75.3543 13.8373 73.3063 11.448C71.3009 9.016 68.2929 7.8 64.2823 7.8H57.2423V35.96H64.2823ZM140.362 0.759998V43H132.362V20.984L132.81 8.632H132.682L120.97 43H113.738L102.09 8.632H101.962L102.41 20.984V43H94.4103V0.759998H107.21L114.826 23.8L117.514 33.336H117.642L120.394 23.864L127.946 0.759998H140.362ZM166.772 0.119999C170.612 0.119999 173.982 0.781331 176.884 2.104C179.785 3.42666 182.26 5.38933 184.308 7.992L179.38 13.688C177.63 11.4693 175.71 9.848 173.62 8.824C171.572 7.75733 169.182 7.224 166.452 7.224C164.66 7.224 163.166 7.45867 161.972 7.928C160.82 8.39733 159.966 9.016 159.412 9.784C158.9 10.552 158.644 11.4053 158.644 12.344C158.644 13.496 159.092 14.4773 159.988 15.288C160.884 16.056 162.42 16.696 164.596 17.208L172.468 19C176.649 19.9387 179.636 21.3467 181.428 23.224C183.262 25.0587 184.18 27.448 184.18 30.392C184.18 33.1653 183.454 35.5547 182.004 37.56C180.553 39.5227 178.526 41.0373 175.924 42.104C173.321 43.128 170.334 43.64 166.964 43.64C164.02 43.64 161.31 43.2987 158.836 42.616C156.404 41.8907 154.228 40.9093 152.308 39.672C150.388 38.4347 148.788 37.0053 147.508 35.384L152.5 29.432C153.481 30.7973 154.697 32.0133 156.148 33.08C157.598 34.1467 159.241 35 161.076 35.64C162.953 36.2373 164.916 36.536 166.964 36.536C168.713 36.536 170.185 36.344 171.38 35.96C172.617 35.5333 173.534 34.9573 174.132 34.232C174.772 33.464 175.092 32.5467 175.092 31.48C175.092 30.3707 174.708 29.432 173.94 28.664C173.214 27.8533 171.849 27.2347 169.844 26.808L161.268 24.888C158.793 24.2907 156.66 23.5227 154.868 22.584C153.118 21.6027 151.774 20.3653 150.836 18.872C149.94 17.336 149.492 15.5227 149.492 13.432C149.492 10.9147 150.174 8.65333 151.54 6.648C152.905 4.64267 154.868 3.064 157.428 1.912C160.03 0.717332 163.145 0.119999 166.772 0.119999Z" fill="white" fill-opacity="0.11"/>
<path d="M42.1447 43V46H46.434L44.9628 41.971L42.1447 43ZM32.9928 43L30.1538 43.9698L30.8474 46H32.9928V43ZM29.4727 32.696L32.3117 31.7262L31.6181 29.696H29.4727V32.696ZM13.2807 32.696V29.696H11.1354L10.4418 31.7262L13.2807 32.696ZM9.76076 43V46H11.9061L12.5997 43.9698L9.76076 43ZM0.736748 43L-2.08125 41.971L-3.55245 46H0.736748V43ZM16.1608 0.759998V-2.24H14.0625L13.3427 -0.269001L16.1608 0.759998ZM26.7207 0.759998L29.5388 -0.269001L28.819 -2.24H26.7207V0.759998ZM15.2648 26.168L12.4157 25.2282L11.1162 29.168H15.2648V26.168ZM27.4888 26.168V29.168H31.651L30.3348 25.2193L27.4888 26.168ZM21.3448 7.736L24.1908 6.78732L21.3298 -1.79556L18.4957 6.79622L21.3448 7.736ZM42.1447 40H32.9928V46H42.1447V40ZM35.8317 42.0302L32.3117 31.7262L26.6338 33.6658L30.1538 43.9698L35.8317 42.0302ZM29.4727 29.696H13.2807V35.696H29.4727V29.696ZM10.4418 31.7262L6.92183 42.0302L12.5997 43.9698L16.1197 33.6658L10.4418 31.7262ZM9.76076 40H0.736748V46H9.76076V40ZM3.55476 44.029L18.9788 1.789L13.3427 -0.269001L-2.08125 41.971L3.55476 44.029ZM16.1608 3.76H26.7207V-2.24H16.1608V3.76ZM23.9027 1.789L39.3268 44.029L44.9628 41.971L29.5388 -0.269001L23.9027 1.789ZM15.2648 29.168H27.4888V23.168H15.2648V29.168ZM30.3348 25.2193L24.1908 6.78732L18.4987 8.68468L24.6427 27.1167L30.3348 25.2193ZM18.4957 6.79622L12.4157 25.2282L18.1138 27.1078L24.1938 8.67578L18.4957 6.79622ZM80.0903 6.264L77.9566 8.37288L77.9627 8.37912L77.9689 8.38532L80.0903 6.264ZM80.0903 37.496L82.2239 39.6049L80.0903 37.496ZM48.4102 43H45.4102V46H48.4102V43ZM48.4102 0.759998V-2.24H45.4102V0.759998H48.4102ZM73.3062 32.376L71.0115 30.4436L71.0083 30.4474L73.3062 32.376ZM73.3062 11.448L70.9916 13.3565L71.0098 13.3786L71.0285 13.4004L73.3062 11.448ZM57.2422 7.8V4.8H54.2422V7.8H57.2422ZM57.2422 35.96H54.2422V38.96H57.2422V35.96ZM64.7303 3.76C70.779 3.76 75.0408 5.4228 77.9566 8.37288L82.2239 4.15512C77.8864 -0.233466 71.9082 -2.24 64.7303 -2.24V3.76ZM77.9689 8.38532C80.8693 11.2857 82.5302 15.6256 82.5302 21.88H88.5302C88.5302 14.5664 86.5645 8.49564 82.2116 4.14268L77.9689 8.38532ZM82.5302 21.88C82.5302 28.0833 80.8734 32.4359 77.9566 35.3871L82.2239 39.6049C86.5604 35.2174 88.5302 29.1594 88.5302 21.88H82.5302ZM77.9566 35.3871C75.0408 38.3372 70.779 40 64.7303 40V46C71.9082 46 77.8864 43.9935 82.2239 39.6049L77.9566 35.3871ZM64.7303 40H48.4102V46H64.7303V40ZM51.4102 43V0.759998H45.4102V43H51.4102ZM48.4102 3.76H64.7303V-2.24H48.4102V3.76ZM64.2823 38.96C68.9067 38.96 72.8741 37.5575 75.6042 34.3046L71.0083 30.4474C69.7278 31.9731 67.6791 32.96 64.2823 32.96V38.96ZM75.601 34.3084C78.2672 31.1422 79.3783 26.8502 79.3783 21.88H73.3783C73.3783 26.0405 72.4413 28.7458 71.0115 30.4436L75.601 34.3084ZM79.3783 21.88C79.3783 16.9146 78.2692 12.6283 75.584 9.49562L71.0285 13.4004C72.4393 15.0464 73.3783 17.7147 73.3783 21.88H79.3783ZM75.6209 9.53945C72.8964 6.2353 68.9242 4.8 64.2823 4.8V10.8C67.6616 10.8 69.7054 11.7967 70.9916 13.3565L75.6209 9.53945ZM64.2823 4.8H57.2422V10.8H64.2823V4.8ZM54.2422 7.8V35.96H60.2422V7.8H54.2422ZM57.2422 38.96H64.2823V32.96H57.2422V38.96ZM140.362 0.759998H143.362V-2.24H140.362V0.759998ZM140.362 43V46H143.362V43H140.362ZM132.362 43H129.362V46H132.362V43ZM132.362 20.984L129.364 20.8753L129.362 20.9296V20.984H132.362ZM132.81 8.632L135.808 8.74074L135.921 5.632H132.81V8.632ZM132.682 8.632V5.632H130.535L129.843 7.6643L132.682 8.632ZM120.97 43V46H123.117L123.81 43.9677L120.97 43ZM113.738 43L110.897 43.963L111.587 46H113.738V43ZM102.09 8.632L104.932 7.66904L104.241 5.632H102.09V8.632ZM101.962 8.632V5.632H98.8515L98.9642 8.74074L101.962 8.632ZM102.41 20.984H105.41V20.9296L105.408 20.8753L102.41 20.984ZM102.41 43V46H105.41V43H102.41ZM94.4102 43H91.4102V46H94.4102V43ZM94.4102 0.759998V-2.24H91.4102V0.759998H94.4102ZM107.21 0.759998L110.059 -0.181561L109.378 -2.24H107.21V0.759998ZM114.826 23.8L117.714 22.9861L117.696 22.9218L117.675 22.8584L114.826 23.8ZM117.514 33.336L114.627 34.1499L115.243 36.336H117.514V33.336ZM117.642 33.336V36.336H119.895L120.523 34.173L117.642 33.336ZM120.394 23.864L117.543 22.9319L117.527 22.9792L117.513 23.027L120.394 23.864ZM127.946 0.759998V-2.24H125.771L125.095 -0.172081L127.946 0.759998ZM137.362 0.759998V43H143.362V0.759998H137.362ZM140.362 40H132.362V46H140.362V40ZM135.362 43V20.984H129.362V43H135.362ZM135.36 21.0927L135.808 8.74074L129.812 8.52326L129.364 20.8753L135.36 21.0927ZM132.81 5.632H132.682V11.632H132.81V5.632ZM129.843 7.6643L118.131 42.0323L123.81 43.9677L135.522 9.5997L129.843 7.6643ZM120.97 40H113.738V46H120.97V40ZM116.579 42.037L104.932 7.66904L99.249 9.59496L110.897 43.963L116.579 42.037ZM102.09 5.632H101.962V11.632H102.09V5.632ZM98.9642 8.74074L99.4122 21.0927L105.408 20.8753L104.96 8.52326L98.9642 8.74074ZM99.4102 20.984V43H105.41V20.984H99.4102ZM102.41 40H94.4102V46H102.41V40ZM97.4102 43V0.759998H91.4102V43H97.4102ZM94.4102 3.76H107.21V-2.24H94.4102V3.76ZM104.362 1.70156L111.978 24.7416L117.675 22.8584L110.059 -0.181561L104.362 1.70156ZM111.939 24.6139L114.627 34.1499L120.402 32.5221L117.714 22.9861L111.939 24.6139ZM117.514 36.336H117.642V30.336H117.514V36.336ZM120.523 34.173L123.275 24.701L117.513 23.027L114.761 32.499L120.523 34.173ZM123.246 24.7961L130.798 1.69208L125.095 -0.172081L117.543 22.9319L123.246 24.7961ZM127.946 3.76H140.362V-2.24H127.946V3.76ZM176.884 2.104L178.128 -0.625727V-0.625728L176.884 2.104ZM184.308 7.992L186.577 9.95485L188.196 8.0825L186.665 6.13683L184.308 7.992ZM179.38 13.688L177.024 15.5455L179.272 18.3972L181.648 15.6508L179.38 13.688ZM173.62 8.824L172.234 11.4847L172.267 11.5019L172.3 11.5182L173.62 8.824ZM161.972 7.928L160.875 5.13574L160.857 5.14262L160.84 5.14972L161.972 7.928ZM159.412 9.784L156.98 8.02752L156.947 8.07311L156.916 8.1199L159.412 9.784ZM159.988 15.288L157.975 17.5126L158.005 17.5396L158.035 17.5658L159.988 15.288ZM164.596 17.208L163.909 20.1283L163.919 20.1307L163.93 20.1332L164.596 17.208ZM172.468 19L171.802 21.9252L171.811 21.9271L172.468 19ZM181.428 23.224L179.258 25.2954L179.282 25.3207L179.306 25.3453L181.428 23.224ZM182.004 37.56L184.416 39.3432L184.425 39.3308L184.434 39.3184L182.004 37.56ZM175.924 42.104L177.022 44.8957L177.042 44.8879L177.061 44.8799L175.924 42.104ZM158.836 42.616L157.978 45.4909L158.008 45.4997L158.038 45.508L158.836 42.616ZM152.308 39.672L150.683 42.1937L152.308 39.672ZM147.508 35.384L145.209 33.4562L143.64 35.3267L145.153 37.2429L147.508 35.384ZM152.5 29.432L154.936 27.6811L152.682 24.5458L150.201 27.5042L152.5 29.432ZM156.148 33.08L154.371 35.497L156.148 33.08ZM161.076 35.64L160.088 38.4726L160.127 38.4862L160.166 38.4988L161.076 35.64ZM171.38 35.96L172.298 38.8161L172.328 38.8064L172.358 38.7961L171.38 35.96ZM174.132 34.232L171.827 32.3114L171.822 32.3181L171.816 32.3249L174.132 34.232ZM173.94 28.664L171.704 30.6644L171.76 30.7264L171.818 30.7853L173.94 28.664ZM169.844 26.808L169.188 29.7355L169.204 29.739L169.219 29.7423L169.844 26.808ZM161.268 24.888L160.564 27.8042L160.588 27.8101L160.612 27.8155L161.268 24.888ZM154.868 22.584L153.4 25.2004L153.438 25.2215L153.476 25.2415L154.868 22.584ZM150.836 18.872L148.244 20.3836L148.269 20.4265L148.296 20.4685L150.836 18.872ZM151.54 6.648L149.06 4.95963L151.54 6.648ZM157.428 1.912L158.659 4.64776L158.669 4.64316L158.679 4.63849L157.428 1.912ZM166.772 3.12C170.269 3.12 173.2 3.72175 175.639 4.83372L178.128 -0.625728C174.765 -2.15909 170.955 -2.88 166.772 -2.88V3.12ZM175.639 4.83372C178.088 5.95006 180.186 7.60562 181.95 9.84717L186.665 6.13683C184.333 3.17304 181.482 0.903267 178.128 -0.625727L175.639 4.83372ZM182.039 6.02915L177.111 11.7251L181.648 15.6508L186.577 9.95485L182.039 6.02915ZM181.736 11.8305C179.766 9.33302 177.511 7.38928 174.939 6.12981L172.3 11.5182C173.91 12.3067 175.494 13.6056 177.024 15.5455L181.736 11.8305ZM175.006 6.16325C172.458 4.83639 169.577 4.224 166.452 4.224V10.224C168.788 10.224 170.686 10.6783 172.234 11.4847L175.006 6.16325ZM166.452 4.224C164.422 4.224 162.528 4.4864 160.875 5.13574L163.069 10.7203C163.805 10.4309 164.897 10.224 166.452 10.224V4.224ZM160.84 5.14972C159.327 5.76614 157.952 6.68189 156.98 8.02752L161.844 11.5405C161.981 11.3501 162.313 11.0285 163.104 10.7063L160.84 5.14972ZM156.916 8.1199C156.069 9.38951 155.644 10.8237 155.644 12.344H161.644C161.644 11.9869 161.73 11.7145 161.908 11.4481L156.916 8.1199ZM155.644 12.344C155.644 14.3895 156.485 16.1646 157.975 17.5126L162 13.0634C161.698 12.79 161.644 12.6025 161.644 12.344H155.644ZM158.035 17.5658C159.494 18.816 161.612 19.588 163.909 20.1283L165.283 14.2877C163.227 13.804 162.274 13.296 161.94 13.0102L158.035 17.5658ZM163.93 20.1332L171.802 21.9252L173.134 16.0748L165.262 14.2828L163.93 20.1332ZM171.811 21.9271C175.754 22.8123 178.062 24.043 179.258 25.2954L183.598 21.1526C181.209 18.6503 177.544 17.065 173.125 16.0728L171.811 21.9271ZM179.306 25.3453C180.501 26.5399 181.18 28.127 181.18 30.392H187.18C187.18 26.769 186.024 23.5774 183.549 21.1027L179.306 25.3453ZM181.18 30.392C181.18 32.6135 180.61 34.3688 179.573 35.8016L184.434 39.3184C186.299 36.7405 187.18 33.7172 187.18 30.392H181.18ZM179.591 35.7768C178.514 37.2344 176.96 38.4372 174.786 39.3281L177.061 44.8799C180.093 43.6375 182.592 41.8109 184.416 39.3432L179.591 35.7768ZM174.825 39.3123C172.636 40.1736 170.034 40.64 166.964 40.64V46.64C170.635 46.64 174.006 46.0824 177.022 44.8957L174.825 39.3123ZM166.964 40.64C164.251 40.64 161.814 40.3254 159.634 39.724L158.038 45.508C160.807 46.2719 163.789 46.64 166.964 46.64V40.64ZM159.693 39.7411C157.503 39.0878 155.59 38.2183 153.933 37.1503L150.683 42.1937C152.865 43.6003 155.305 44.6935 157.978 45.4909L159.693 39.7411ZM153.933 37.1503C152.262 36.0733 150.917 34.8608 149.862 33.5251L145.153 37.2429C146.659 39.1499 148.514 40.796 150.683 42.1937L153.933 37.1503ZM149.806 37.3118L154.798 31.3598L150.201 27.5042L145.209 33.4562L149.806 37.3118ZM150.064 31.1829C151.241 32.8209 152.685 34.2574 154.371 35.497L157.925 30.663C156.709 29.7693 155.721 28.7738 154.936 27.6811L150.064 31.1829ZM154.371 35.497C156.08 36.7542 157.993 37.7419 160.088 38.4726L162.064 32.8074C160.489 32.2581 159.116 31.5392 157.925 30.663L154.371 35.497ZM160.166 38.4988C162.349 39.1934 164.619 39.536 166.964 39.536V33.536C165.212 33.536 163.557 33.2813 161.985 32.7812L160.166 38.4988ZM166.964 39.536C168.912 39.536 170.715 39.3248 172.298 38.8161L170.462 33.1039C169.655 33.3632 168.514 33.536 166.964 33.536V39.536ZM172.358 38.7961C173.921 38.2569 175.386 37.4278 176.448 36.1391L171.816 32.3249C171.683 32.4869 171.313 32.8098 170.402 33.1239L172.358 38.7961ZM176.436 36.1526C177.557 34.8077 178.092 33.1978 178.092 31.48H172.092C172.092 31.8956 171.986 32.1203 171.827 32.3114L176.436 36.1526ZM178.092 31.48C178.092 29.5941 177.405 27.8866 176.061 26.5427L171.818 30.7853C172.01 30.9774 172.092 31.1473 172.092 31.48H178.092ZM176.175 26.6636C174.789 25.1139 172.623 24.3322 170.468 23.8737L169.219 29.7423C170.082 29.9259 170.705 30.1301 171.134 30.3246C171.344 30.42 171.489 30.5042 171.583 30.5685C171.676 30.6326 171.707 30.6682 171.704 30.6644L176.175 26.6636ZM170.499 23.8805L161.923 21.9605L160.612 27.8155L169.188 29.7355L170.499 23.8805ZM161.972 21.9718C159.678 21.418 157.786 20.7261 156.26 19.9265L153.476 25.2415C155.533 26.3192 157.909 27.1633 160.564 27.8042L161.972 21.9718ZM156.336 19.9676C154.962 19.1973 154.013 18.2894 153.376 17.2755L148.296 20.4685C149.536 22.4412 151.274 24.008 153.4 25.2004L156.336 19.9676ZM153.427 17.3604C152.842 16.3582 152.492 15.0856 152.492 13.432H146.492C146.492 15.9597 147.037 18.3138 148.244 20.3836L153.427 17.3604ZM152.492 13.432C152.492 11.4929 153.006 9.82438 154.02 8.33637L149.06 4.95963C147.342 7.48229 146.492 10.3365 146.492 13.432H152.492ZM154.02 8.33637C155.027 6.85677 156.523 5.60889 158.659 4.64776L156.197 -0.823766C153.212 0.519104 150.783 2.42856 149.06 4.95963L154.02 8.33637ZM158.679 4.63849C160.799 3.66532 163.466 3.12 166.772 3.12V-2.88C162.824 -2.88 159.261 -2.23066 156.176 -0.81449L158.679 4.63849Z" fill="#DBDBDB" fill-opacity="0.78" mask="url(#path-1-outside-1_36_201)"/>
</svg>
