<svg width="197" height="40" viewBox="0 0 197 40" fill="none" xmlns="http://www.w3.org/2000/svg">
<path d="M17.1284 35.72C12.0084 35.72 8.00844 34.2 5.12844 31.16C2.24844 28.12 0.808438 23.8 0.808438 18.2C0.808438 14.52 1.43244 11.368 2.68044 8.744C3.96044 6.088 5.73644 4.088 8.00844 2.744C10.3124 1.368 12.9684 0.679998 15.9764 0.679998C17.8004 0.679998 19.6404 1.208 21.4964 2.264C22.2004 2.648 22.9044 3.16 23.6084 3.8C24.1524 2.968 24.7124 2.312 25.2884 1.832C25.8644 1.416 26.1844 1.192 26.2484 1.16H27.4484V10.28H25.5284C25.1124 8.744 24.4884 7.352 23.6564 6.104C22.8884 4.888 21.9284 3.88 20.7764 3.08C19.6564 2.28 18.3604 1.88 16.8884 1.88C14.6804 1.88 12.8404 3.16 11.3684 5.72C9.92844 8.28 9.20844 12.44 9.20844 18.2C9.20844 24.056 9.99244 28.248 11.5604 30.776C13.1604 33.272 15.3364 34.52 18.0884 34.52C19.5924 34.52 21.0164 34.104 22.3604 33.272C23.7364 32.408 24.8404 31.272 25.6724 29.864C26.5364 28.456 26.9684 26.968 26.9684 25.4H28.1684C28.1684 27.224 27.6724 28.936 26.6804 30.536C25.7204 32.104 24.3924 33.368 22.6964 34.328C21.0324 35.256 19.1764 35.72 17.1284 35.72ZM46.6897 35.72C43.5537 35.72 40.8017 35.048 38.4337 33.704C36.0977 32.328 34.2897 30.328 33.0097 27.704C31.7297 25.08 31.0897 21.912 31.0897 18.2C31.0897 14.488 31.7297 11.32 33.0097 8.696C34.2897 6.072 36.0977 4.088 38.4337 2.744C40.8017 1.368 43.5537 0.679998 46.6897 0.679998C49.8257 0.679998 52.5617 1.368 54.8977 2.744C57.2657 4.088 59.0897 6.072 60.3697 8.696C61.6497 11.32 62.2897 14.488 62.2897 18.2C62.2897 21.912 61.6497 25.08 60.3697 27.704C59.0897 30.328 57.2657 32.328 54.8977 33.704C52.5617 35.048 49.8257 35.72 46.6897 35.72ZM46.6897 34.76C47.9377 34.76 49.0897 34.232 50.1457 33.176C51.2337 32.12 52.1297 30.36 52.8337 27.896C53.5377 25.432 53.8897 22.2 53.8897 18.2C53.8897 14.2 53.5377 10.968 52.8337 8.504C52.1297 6.04 51.2337 4.28 50.1457 3.224C49.0897 2.168 47.9377 1.64 46.6897 1.64C45.4417 1.64 44.2737 2.168 43.1857 3.224C42.1297 4.28 41.2497 6.04 40.5457 8.504C39.8417 10.968 39.4897 14.2 39.4897 18.2C39.4897 22.2 39.8417 25.432 40.5457 27.896C41.2497 30.36 42.1297 32.12 43.1857 33.176C44.2737 34.232 45.4417 34.76 46.6897 34.76ZM66.8609 34.28L69.7409 33.56V2.84L66.8609 2.12V1.4H79.1009C84.8289 1.4 89.2129 2.872 92.2529 5.816C95.3249 8.76 96.8609 12.888 96.8609 18.2C96.8609 23.512 95.3249 27.64 92.2529 30.584C89.2129 33.528 84.8289 35 79.1009 35H66.8609V34.28ZM79.1009 33.8C82.0769 33.8 84.3809 32.6 86.0129 30.2C87.6449 27.768 88.4609 23.768 88.4609 18.2C88.4609 12.632 87.6449 8.648 86.0129 6.248C84.3809 3.816 82.0769 2.6 79.1009 2.6H77.6609V33.8H79.1009ZM101.173 34.28L104.053 33.56V2.84L101.173 2.12V1.4H126.853V10.04H125.413C124.805 9.56 124.277 8.952 123.829 8.216C122.805 6.488 122.293 4.616 122.293 2.6H111.973V17.72H117.493C117.717 16.504 118.133 15.368 118.741 14.312C118.997 13.832 119.301 13.368 119.653 12.92H121.093V23.72H119.653C119.301 23.272 118.997 22.808 118.741 22.328C118.133 21.272 117.717 20.136 117.493 18.92H111.973V33.8H123.253C123.253 31.784 123.765 29.912 124.789 28.184C125.237 27.448 125.765 26.84 126.373 26.36H127.813V35H101.173V34.28ZM129.711 39.8V37.64H148.431V39.8H129.711ZM150.814 35V34.28L153.694 33.56V2.84L150.814 2.12V1.4H164.494V2.12L161.614 2.84V33.56L164.494 34.28V35H150.814ZM175.283 34.28L178.163 33.56V2.6H172.643C172.643 4.552 172.115 6.424 171.059 8.216C170.611 8.952 170.099 9.56 169.523 10.04H168.083V1.4H196.163V10.04H194.723C194.115 9.56 193.587 8.952 193.139 8.216C192.115 6.488 191.603 4.616 191.603 2.6H186.083V33.56L188.963 34.28V35H175.283V34.28Z" fill="url(#paint0_linear_57_240)"/>
<defs>
<linearGradient id="paint0_linear_57_240" x1="-14" y1="-14" x2="224" y2="29" gradientUnits="userSpaceOnUse">
<stop stop-color="#DE5B32"/>
<stop offset="1" stop-color="#FF9315"/>
</linearGradient>
</defs>
</svg>
