<svg width="154" height="48" viewBox="0 0 154 48" fill="none" xmlns="http://www.w3.org/2000/svg">
<mask id="path-1-outside-1_105_439" maskUnits="userSpaceOnUse" x="-3" y="-3" width="160" height="54" fill="black">
<rect fill="white" x="-3" y="-3" width="160" height="54"/>
<path d="M38.5703 35.352C37.7596 38.0827 36.4796 40.3653 34.7303 42.2C32.9809 44.0347 30.9116 45.4 28.5223 46.296C26.1329 47.192 23.5089 47.64 20.6503 47.64C16.4689 47.64 12.8423 46.7653 9.77025 45.016C6.74092 43.2667 4.39425 40.7707 2.73025 37.528C1.10892 34.2853 0.29825 30.4027 0.29825 25.88C0.29825 21.3573 1.10892 17.4747 2.73025 14.232C4.39425 10.9893 6.74092 8.49333 9.77025 6.744C12.8423 4.99467 16.4263 4.12 20.5223 4.12C23.4236 4.12 26.0476 4.52533 28.3943 5.336C30.7409 6.104 32.7249 7.29867 34.3463 8.92C36.0103 10.5413 37.2263 12.5893 37.9943 15.064L29.9943 18.456C29.2689 15.896 28.1596 14.0827 26.6663 13.016C25.1729 11.9067 23.2529 11.352 20.9063 11.352C18.6023 11.352 16.5756 11.9067 14.8263 13.016C13.1196 14.1253 11.7969 15.768 10.8583 17.944C9.91958 20.0773 9.45025 22.7227 9.45025 25.88C9.45025 28.9947 9.87692 31.64 10.7303 33.816C11.6263 35.992 12.9276 37.6347 14.6343 38.744C16.3409 39.8533 18.4316 40.408 20.9063 40.408C23.2103 40.408 25.1943 39.7893 26.8583 38.552C28.5649 37.3147 29.7596 35.4373 30.4423 32.92L38.5703 35.352ZM59.7938 14.36C63.0364 14.36 65.8738 15.0213 68.3058 16.344C70.7804 17.6667 72.7004 19.5653 74.0658 22.04C75.4738 24.5147 76.1778 27.5013 76.1778 31C76.1778 34.456 75.4738 37.4427 74.0658 39.96C72.7004 42.4347 70.7804 44.3333 68.3058 45.656C65.8738 46.9787 63.0364 47.64 59.7938 47.64C56.5938 47.64 53.7564 46.9787 51.2818 45.656C48.8071 44.3333 46.8658 42.4347 45.4578 39.96C44.0924 37.4427 43.4098 34.456 43.4098 31C43.4098 27.5013 44.0924 24.5147 45.4578 22.04C46.8658 19.5653 48.8071 17.6667 51.2818 16.344C53.7564 15.0213 56.5938 14.36 59.7938 14.36ZM59.7938 20.888C58.1724 20.888 56.7858 21.272 55.6338 22.04C54.5244 22.7653 53.6711 23.8747 53.0738 25.368C52.4764 26.8613 52.1778 28.7387 52.1778 31C52.1778 33.2613 52.4764 35.1387 53.0738 36.632C53.6711 38.1253 54.5244 39.256 55.6338 40.024C56.7858 40.7493 58.1724 41.112 59.7938 41.112C61.3724 41.112 62.7164 40.7493 63.8258 40.024C64.9778 39.256 65.8524 38.1253 66.4498 36.632C67.0471 35.1387 67.3458 33.2613 67.3458 31C67.3458 28.7387 67.0471 26.8613 66.4498 25.368C65.8524 23.8747 64.9778 22.7653 63.8258 22.04C62.7164 21.272 61.3724 20.888 59.7938 20.888ZM95.6103 47.64C92.9649 47.64 90.5969 46.9787 88.5063 45.656C86.4583 44.3333 84.8369 42.4347 83.6423 39.96C82.4903 37.4853 81.9143 34.52 81.9143 31.064C81.9143 27.5227 82.5329 24.5147 83.7703 22.04C85.0076 19.5227 86.6716 17.624 88.7623 16.344C90.8956 15.0213 93.2849 14.36 95.9303 14.36C98.7463 14.36 101.072 15.1707 102.906 16.792C104.741 18.4133 105.936 20.504 106.49 23.064L105.658 24.088V0.983997H114.426V47H106.554L105.978 37.272L107.066 37.784C106.768 39.7893 106.085 41.5387 105.018 43.032C103.952 44.4827 102.608 45.6133 100.986 46.424C99.3649 47.2347 97.5729 47.64 95.6103 47.64ZM98.1703 40.92C99.7063 40.92 101.029 40.536 102.138 39.768C103.248 38.9573 104.101 37.784 104.698 36.248C105.338 34.712 105.658 32.8773 105.658 30.744C105.658 28.696 105.36 26.968 104.762 25.56C104.165 24.1093 103.312 23 102.202 22.232C101.093 21.464 99.7916 21.08 98.2983 21.08C95.9089 21.08 94.0316 21.9333 92.6663 23.64C91.3436 25.304 90.6823 27.7573 90.6823 31C90.6823 34.2427 91.3436 36.7173 92.6663 38.424C93.9889 40.088 95.8236 40.92 98.1703 40.92ZM138.487 47.64C135.117 47.64 132.173 46.9787 129.655 45.656C127.181 44.3333 125.261 42.4347 123.895 39.96C122.53 37.4853 121.847 34.4987 121.847 31C121.847 27.5013 122.53 24.5147 123.895 22.04C125.261 19.5653 127.159 17.6667 129.591 16.344C132.066 15.0213 134.882 14.36 138.039 14.36C141.282 14.36 144.034 15.0213 146.295 16.344C148.557 17.624 150.285 19.3947 151.479 21.656C152.674 23.8747 153.271 26.4133 153.271 29.272C153.271 30.1253 153.25 30.936 153.207 31.704C153.165 32.472 153.101 33.1547 153.015 33.752H127.479V27.672H149.175L144.951 29.208C144.951 26.52 144.333 24.4507 143.095 23C141.901 21.5493 140.194 20.824 137.975 20.824C136.354 20.824 134.946 21.208 133.751 21.976C132.599 22.744 131.725 23.896 131.127 25.432C130.53 26.9253 130.231 28.824 130.231 31.128C130.231 33.3893 130.551 35.2667 131.191 36.76C131.874 38.2107 132.813 39.2987 134.007 40.024C135.245 40.7493 136.717 41.112 138.423 41.112C140.301 41.112 141.815 40.7493 142.967 40.024C144.119 39.2987 145.015 38.296 145.655 37.016L152.631 39.704C151.949 41.368 150.903 42.7973 149.495 43.992C148.13 45.1867 146.487 46.104 144.567 46.744C142.69 47.3413 140.663 47.64 138.487 47.64Z"/>
</mask>
<path d="M38.5703 35.352C37.7596 38.0827 36.4796 40.3653 34.7303 42.2C32.9809 44.0347 30.9116 45.4 28.5223 46.296C26.1329 47.192 23.5089 47.64 20.6503 47.64C16.4689 47.64 12.8423 46.7653 9.77025 45.016C6.74092 43.2667 4.39425 40.7707 2.73025 37.528C1.10892 34.2853 0.29825 30.4027 0.29825 25.88C0.29825 21.3573 1.10892 17.4747 2.73025 14.232C4.39425 10.9893 6.74092 8.49333 9.77025 6.744C12.8423 4.99467 16.4263 4.12 20.5223 4.12C23.4236 4.12 26.0476 4.52533 28.3943 5.336C30.7409 6.104 32.7249 7.29867 34.3463 8.92C36.0103 10.5413 37.2263 12.5893 37.9943 15.064L29.9943 18.456C29.2689 15.896 28.1596 14.0827 26.6663 13.016C25.1729 11.9067 23.2529 11.352 20.9063 11.352C18.6023 11.352 16.5756 11.9067 14.8263 13.016C13.1196 14.1253 11.7969 15.768 10.8583 17.944C9.91958 20.0773 9.45025 22.7227 9.45025 25.88C9.45025 28.9947 9.87692 31.64 10.7303 33.816C11.6263 35.992 12.9276 37.6347 14.6343 38.744C16.3409 39.8533 18.4316 40.408 20.9063 40.408C23.2103 40.408 25.1943 39.7893 26.8583 38.552C28.5649 37.3147 29.7596 35.4373 30.4423 32.92L38.5703 35.352ZM59.7938 14.36C63.0364 14.36 65.8738 15.0213 68.3058 16.344C70.7804 17.6667 72.7004 19.5653 74.0658 22.04C75.4738 24.5147 76.1778 27.5013 76.1778 31C76.1778 34.456 75.4738 37.4427 74.0658 39.96C72.7004 42.4347 70.7804 44.3333 68.3058 45.656C65.8738 46.9787 63.0364 47.64 59.7938 47.64C56.5938 47.64 53.7564 46.9787 51.2818 45.656C48.8071 44.3333 46.8658 42.4347 45.4578 39.96C44.0924 37.4427 43.4098 34.456 43.4098 31C43.4098 27.5013 44.0924 24.5147 45.4578 22.04C46.8658 19.5653 48.8071 17.6667 51.2818 16.344C53.7564 15.0213 56.5938 14.36 59.7938 14.36ZM59.7938 20.888C58.1724 20.888 56.7858 21.272 55.6338 22.04C54.5244 22.7653 53.6711 23.8747 53.0738 25.368C52.4764 26.8613 52.1778 28.7387 52.1778 31C52.1778 33.2613 52.4764 35.1387 53.0738 36.632C53.6711 38.1253 54.5244 39.256 55.6338 40.024C56.7858 40.7493 58.1724 41.112 59.7938 41.112C61.3724 41.112 62.7164 40.7493 63.8258 40.024C64.9778 39.256 65.8524 38.1253 66.4498 36.632C67.0471 35.1387 67.3458 33.2613 67.3458 31C67.3458 28.7387 67.0471 26.8613 66.4498 25.368C65.8524 23.8747 64.9778 22.7653 63.8258 22.04C62.7164 21.272 61.3724 20.888 59.7938 20.888ZM95.6103 47.64C92.9649 47.64 90.5969 46.9787 88.5063 45.656C86.4583 44.3333 84.8369 42.4347 83.6423 39.96C82.4903 37.4853 81.9143 34.52 81.9143 31.064C81.9143 27.5227 82.5329 24.5147 83.7703 22.04C85.0076 19.5227 86.6716 17.624 88.7623 16.344C90.8956 15.0213 93.2849 14.36 95.9303 14.36C98.7463 14.36 101.072 15.1707 102.906 16.792C104.741 18.4133 105.936 20.504 106.49 23.064L105.658 24.088V0.983997H114.426V47H106.554L105.978 37.272L107.066 37.784C106.768 39.7893 106.085 41.5387 105.018 43.032C103.952 44.4827 102.608 45.6133 100.986 46.424C99.3649 47.2347 97.5729 47.64 95.6103 47.64ZM98.1703 40.92C99.7063 40.92 101.029 40.536 102.138 39.768C103.248 38.9573 104.101 37.784 104.698 36.248C105.338 34.712 105.658 32.8773 105.658 30.744C105.658 28.696 105.36 26.968 104.762 25.56C104.165 24.1093 103.312 23 102.202 22.232C101.093 21.464 99.7916 21.08 98.2983 21.08C95.9089 21.08 94.0316 21.9333 92.6663 23.64C91.3436 25.304 90.6823 27.7573 90.6823 31C90.6823 34.2427 91.3436 36.7173 92.6663 38.424C93.9889 40.088 95.8236 40.92 98.1703 40.92ZM138.487 47.64C135.117 47.64 132.173 46.9787 129.655 45.656C127.181 44.3333 125.261 42.4347 123.895 39.96C122.53 37.4853 121.847 34.4987 121.847 31C121.847 27.5013 122.53 24.5147 123.895 22.04C125.261 19.5653 127.159 17.6667 129.591 16.344C132.066 15.0213 134.882 14.36 138.039 14.36C141.282 14.36 144.034 15.0213 146.295 16.344C148.557 17.624 150.285 19.3947 151.479 21.656C152.674 23.8747 153.271 26.4133 153.271 29.272C153.271 30.1253 153.25 30.936 153.207 31.704C153.165 32.472 153.101 33.1547 153.015 33.752H127.479V27.672H149.175L144.951 29.208C144.951 26.52 144.333 24.4507 143.095 23C141.901 21.5493 140.194 20.824 137.975 20.824C136.354 20.824 134.946 21.208 133.751 21.976C132.599 22.744 131.725 23.896 131.127 25.432C130.53 26.9253 130.231 28.824 130.231 31.128C130.231 33.3893 130.551 35.2667 131.191 36.76C131.874 38.2107 132.813 39.2987 134.007 40.024C135.245 40.7493 136.717 41.112 138.423 41.112C140.301 41.112 141.815 40.7493 142.967 40.024C144.119 39.2987 145.015 38.296 145.655 37.016L152.631 39.704C151.949 41.368 150.903 42.7973 149.495 43.992C148.13 45.1867 146.487 46.104 144.567 46.744C142.69 47.3413 140.663 47.64 138.487 47.64Z" fill="white" fill-opacity="0.11"/>
<path d="M38.5703 35.352L41.4462 36.2058L42.2982 33.336L39.4302 32.4779L38.5703 35.352ZM34.7303 42.2L36.9015 44.2702L36.9015 44.2702L34.7303 42.2ZM28.5223 46.296L27.4689 43.487L27.4689 43.487L28.5223 46.296ZM9.77025 45.016L8.27003 47.6139L8.27787 47.6185L8.28573 47.623L9.77025 45.016ZM2.73025 37.528L0.0469688 38.8696L0.0539929 38.8837L0.0611638 38.8977L2.73025 37.528ZM2.73025 14.232L0.0611639 12.8623L0.053993 12.8763L0.0469688 12.8904L2.73025 14.232ZM9.77025 6.744L8.28573 4.13704L8.27787 4.14152L8.27003 4.14605L9.77025 6.744ZM28.3943 5.336L27.4147 8.17157L27.4378 8.17957L27.4611 8.18719L28.3943 5.336ZM34.3463 8.92L32.2249 11.0413L32.2387 11.0551L32.2527 11.0687L34.3463 8.92ZM37.9943 15.064L39.1653 17.826L41.6638 16.7666L40.8594 14.1748L37.9943 15.064ZM29.9943 18.456L27.1079 19.2738L28.0348 22.5453L31.1653 21.218L29.9943 18.456ZM26.6663 13.016L24.8773 15.4242L24.8998 15.4409L24.9225 15.4572L26.6663 13.016ZM14.8263 13.016L13.2196 10.4825L13.2054 10.4915L13.1913 10.5007L14.8263 13.016ZM10.8583 17.944L13.6042 19.1522L13.6086 19.1423L13.6129 19.1323L10.8583 17.944ZM10.7303 33.816L7.93733 34.9113L7.94658 34.9348L7.95622 34.9582L10.7303 33.816ZM14.6343 38.744L16.2692 36.2287L16.2692 36.2287L14.6343 38.744ZM26.8583 38.552L25.0973 36.1232L25.0827 36.1338L25.0681 36.1446L26.8583 38.552ZM30.4423 32.92L31.3022 30.0459L28.3527 29.1633L27.5468 32.1348L30.4423 32.92ZM35.6943 34.4982C35.002 36.8303 33.9417 38.6796 32.559 40.1298L36.9015 44.2702C39.0174 42.0511 40.5172 39.3351 41.4462 36.2058L35.6943 34.4982ZM32.559 40.1298C31.124 41.6348 29.4376 42.7487 27.4689 43.487L29.5756 49.105C32.3856 48.0513 34.8378 46.4345 36.9015 44.2702L32.559 40.1298ZM27.4689 43.487C25.4544 44.2424 23.1922 44.64 20.6503 44.64V50.64C23.8257 50.64 26.8114 50.1416 29.5756 49.105L27.4689 43.487ZM20.6503 44.64C16.8939 44.64 13.798 43.8573 11.2548 42.409L8.28573 47.623C11.8865 49.6734 16.0439 50.64 20.6503 50.64V44.64ZM11.2705 42.4181C8.76237 40.9697 6.81156 38.9104 5.39934 36.1583L0.0611638 38.8977C1.97695 42.631 4.71947 45.5636 8.27003 47.6139L11.2705 42.4181ZM5.41353 36.1864C4.04562 33.4505 3.29825 30.0496 3.29825 25.88H-2.70175C-2.70175 30.7557 -1.82778 35.1201 0.0469688 38.8696L5.41353 36.1864ZM3.29825 25.88C3.29825 21.7104 4.04562 18.3095 5.41353 15.5736L0.0469688 12.8904C-1.82778 16.6399 -2.70175 21.0043 -2.70175 25.88H3.29825ZM5.39934 15.6017C6.81156 12.8496 8.76237 10.7903 11.2705 9.34195L8.27003 4.14605C4.71947 6.19638 1.97695 9.12902 0.0611639 12.8623L5.39934 15.6017ZM11.2548 9.35095C13.807 7.89758 16.8634 7.12 20.5223 7.12V1.12C15.9892 1.12 11.8775 2.09175 8.28573 4.13704L11.2548 9.35095ZM20.5223 7.12C23.1452 7.12 25.4312 7.48637 27.4147 8.17157L29.3738 2.50043C26.6639 1.56429 23.702 1.12 20.5223 1.12V7.12ZM27.4611 8.18719C29.3951 8.82013 30.9621 9.77847 32.2249 11.0413L36.4676 6.79868C34.4878 4.81886 32.0867 3.38787 29.3274 2.48481L27.4611 8.18719ZM32.2527 11.0687C33.5187 12.3023 34.4919 13.9001 35.1291 15.9532L40.8594 14.1748C39.9606 11.2786 38.5018 8.78038 36.4398 6.77131L32.2527 11.0687ZM36.8232 12.302L28.8232 15.694L31.1653 21.218L39.1653 17.826L36.8232 12.302ZM32.8806 17.6382C32.0507 14.7091 30.6587 12.181 28.41 10.5748L24.9225 15.4572C25.6605 15.9843 26.4871 17.0829 27.1079 19.2738L32.8806 17.6382ZM28.4552 10.6078C26.3228 9.0237 23.727 8.352 20.9063 8.352V14.352C22.7788 14.352 24.023 14.7896 24.8773 15.4242L28.4552 10.6078ZM20.9063 8.352C18.0993 8.352 15.5023 9.03494 13.2196 10.4825L16.4329 15.5495C17.6489 14.7784 19.1052 14.352 20.9063 14.352V8.352ZM13.1913 10.5007C10.9114 11.9826 9.23714 14.128 8.10362 16.7557L13.6129 19.1323C14.3567 17.408 15.3277 16.2681 16.4612 15.5313L13.1913 10.5007ZM8.11231 16.7358C6.95791 19.3594 6.45025 22.4458 6.45025 25.88H12.4503C12.4503 22.9995 12.8813 20.7953 13.6042 19.1522L8.11231 16.7358ZM6.45025 25.88C6.45025 29.252 6.90996 32.2915 7.93733 34.9113L13.5232 32.7207C12.8439 30.9885 12.4503 28.7374 12.4503 25.88H6.45025ZM7.95622 34.9582C9.04662 37.6064 10.7062 39.7688 12.9993 41.2593L16.2692 36.2287C15.149 35.5005 14.2059 34.3776 13.5043 32.6737L7.95622 34.9582ZM12.9993 41.2593C15.2886 42.7474 17.9774 43.408 20.9063 43.408V37.408C18.8858 37.408 17.3932 36.9593 16.2692 36.2287L12.9993 41.2593ZM20.9063 43.408C23.7798 43.408 26.4095 42.6242 28.6484 40.9594L25.0681 36.1446C23.979 36.9545 22.6407 37.408 20.9063 37.408V43.408ZM28.6192 40.9808C31.0023 39.2531 32.5194 36.7226 33.3377 33.7052L27.5468 32.1348C26.9998 34.1521 26.1275 35.3763 25.0973 36.1232L28.6192 40.9808ZM29.5823 35.7941L37.7103 38.2261L39.4302 32.4779L31.3022 30.0459L29.5823 35.7941ZM68.3058 16.344L66.8724 18.9794L66.882 18.9847L66.8916 18.9898L68.3058 16.344ZM74.0658 22.04L71.439 23.4892L71.4485 23.5065L71.4583 23.5236L74.0658 22.04ZM74.0658 39.96L71.4475 38.4955L71.4432 38.5031L71.439 38.5108L74.0658 39.96ZM68.3058 45.656L66.8916 43.0102L66.882 43.0153L66.8724 43.0205L68.3058 45.656ZM51.2818 45.656L52.6959 43.0102L52.6959 43.0102L51.2818 45.656ZM45.4578 39.96L42.8207 41.3903L42.8352 41.4171L42.8503 41.4436L45.4578 39.96ZM45.4578 22.04L42.8503 20.5564L42.8405 20.5735L42.831 20.5908L45.4578 22.04ZM51.2818 16.344L52.6959 18.9898L52.6959 18.9898L51.2818 16.344ZM55.6338 22.04L57.2755 24.5509L57.2867 24.5436L57.2979 24.5361L55.6338 22.04ZM53.0738 25.368L50.2883 24.2538L50.2883 24.2538L53.0738 25.368ZM53.0738 36.632L50.2883 37.7462L50.2883 37.7462L53.0738 36.632ZM55.6338 40.024L53.9261 42.4906L53.9799 42.5278L54.0353 42.5627L55.6338 40.024ZM63.8258 40.024L65.4675 42.5349L65.4787 42.5276L65.4899 42.5202L63.8258 40.024ZM66.4498 36.632L69.2352 37.7462L69.2352 37.7462L66.4498 36.632ZM66.4498 25.368L69.2352 24.2538L69.2352 24.2538L66.4498 25.368ZM63.8258 22.04L62.1181 24.5066L62.1719 24.5438L62.2273 24.5787L63.8258 22.04ZM59.7938 17.36C62.6218 17.36 64.9502 17.934 66.8724 18.9794L69.7391 13.7085C66.7973 12.1087 63.4511 11.36 59.7938 11.36V17.36ZM66.8916 18.9898C68.851 20.0371 70.3516 21.5183 71.439 23.4892L76.6925 20.5908C75.0492 17.6124 72.7098 15.2963 69.7199 13.6982L66.8916 18.9898ZM71.4583 23.5236C72.5563 25.4535 73.1778 27.9034 73.1778 31H79.1778C79.1778 27.0993 78.3912 23.5759 76.6732 20.5564L71.4583 23.5236ZM73.1778 31C73.1778 34.0447 72.5599 36.5067 71.4475 38.4955L76.684 41.4245C78.3876 38.3787 79.1778 34.8673 79.1778 31H73.1778ZM71.439 38.5108C70.3516 40.4817 68.851 41.9629 66.8916 43.0102L69.7199 48.3018C72.7098 46.7037 75.0492 44.3876 76.6925 41.4092L71.439 38.5108ZM66.8724 43.0205C64.9502 44.066 62.6218 44.64 59.7938 44.64V50.64C63.4511 50.64 66.7973 49.8913 69.7391 48.2915L66.8724 43.0205ZM59.7938 44.64C57.0171 44.64 54.6777 44.0694 52.6959 43.0102L49.8676 48.3018C52.8352 49.8879 56.1704 50.64 59.7938 50.64V44.64ZM52.6959 43.0102C50.7284 41.9586 49.1975 40.4665 48.0652 38.4764L42.8503 41.4436C44.534 44.4029 46.8857 46.708 49.8676 48.3018L52.6959 43.0102ZM48.0948 38.5297C47.0123 36.5337 46.4098 34.0591 46.4098 31H40.4098C40.4098 34.8528 41.1726 38.3517 42.8207 41.3903L48.0948 38.5297ZM46.4098 31C46.4098 27.8891 47.0157 25.4264 48.0845 23.4892L42.831 20.5908C41.1691 23.6029 40.4098 27.1135 40.4098 31H46.4098ZM48.0652 23.5236C49.1975 21.5335 50.7284 20.0414 52.6959 18.9898L49.8676 13.6982C46.8857 15.292 44.534 17.5971 42.8503 20.5564L48.0652 23.5236ZM52.6959 18.9898C54.6777 17.9306 57.0171 17.36 59.7938 17.36V11.36C56.1704 11.36 52.8352 12.1121 49.8676 13.6982L52.6959 18.9898ZM59.7938 17.888C57.6837 17.888 55.6941 18.3942 53.9697 19.5438L57.2979 24.5361C57.8774 24.1498 58.6611 23.888 59.7938 23.888V17.888ZM53.992 19.5291C52.2655 20.658 51.0648 22.3127 50.2883 24.2538L55.8592 26.4822C56.2774 25.4366 56.7834 24.8727 57.2755 24.5509L53.992 19.5291ZM50.2883 24.2538C49.5043 26.214 49.1778 28.5005 49.1778 31H55.1778C55.1778 28.9769 55.4486 27.5087 55.8592 26.4822L50.2883 24.2538ZM49.1778 31C49.1778 33.4995 49.5043 35.786 50.2883 37.7462L55.8592 35.5178C55.4486 34.4913 55.1778 33.0231 55.1778 31H49.1778ZM50.2883 37.7462C51.0617 39.6796 52.246 41.3274 53.9261 42.4906L57.3414 37.5574C56.8029 37.1846 56.2805 36.5711 55.8592 35.5178L50.2883 37.7462ZM54.0353 42.5627C55.7507 43.6428 57.716 44.112 59.7938 44.112V38.112C58.6288 38.112 57.8208 37.8559 57.2322 37.4853L54.0353 42.5627ZM59.7938 44.112C61.8425 44.112 63.7833 43.6361 65.4675 42.5349L62.184 37.5131C61.6495 37.8626 60.9024 38.112 59.7938 38.112V44.112ZM65.4899 42.5202C67.2247 41.3636 68.4499 39.7093 69.2352 37.7462L63.6643 35.5178C63.2549 36.5414 62.7308 37.1484 62.1617 37.5278L65.4899 42.5202ZM69.2352 37.7462C70.0192 35.786 70.3458 33.4995 70.3458 31H64.3458C64.3458 33.0231 64.0749 34.4913 63.6643 35.5178L69.2352 37.7462ZM70.3458 31C70.3458 28.5005 70.0192 26.214 69.2352 24.2538L63.6643 26.4822C64.0749 27.5087 64.3458 28.9769 64.3458 31H70.3458ZM69.2352 24.2538C68.4465 22.2821 67.2045 20.6223 65.4242 19.5013L62.2273 24.5787C62.751 24.9084 63.2583 25.4672 63.6643 26.4822L69.2352 24.2538ZM65.5334 19.5734C63.8413 18.402 61.8761 17.888 59.7938 17.888V23.888C60.8688 23.888 61.5915 24.142 62.1181 24.5066L65.5334 19.5734ZM88.5063 45.656L86.8787 48.1761L86.8905 48.1837L86.9023 48.1912L88.5063 45.656ZM83.6423 39.96L80.9225 41.2261L80.9314 41.2452L80.9406 41.2642L83.6423 39.96ZM83.7703 22.04L86.4535 23.3816L86.4581 23.3725L86.4626 23.3634L83.7703 22.04ZM88.7623 16.344L90.3287 18.9026L90.3359 18.8981L90.3431 18.8937L88.7623 16.344ZM102.906 16.792L104.893 14.544L104.893 14.544L102.906 16.792ZM106.49 23.064L108.819 24.9558L109.727 23.8372L109.422 22.4287L106.49 23.064ZM105.658 24.088H102.658V32.5377L107.987 25.9798L105.658 24.088ZM105.658 0.983997V-2.016H102.658V0.983997H105.658ZM114.426 0.983997H117.426V-2.016H114.426V0.983997ZM114.426 47V50H117.426V47H114.426ZM106.554 47L103.559 47.1773L103.727 50H106.554V47ZM105.978 37.272L107.256 34.5575L102.685 32.4066L102.983 37.4493L105.978 37.272ZM107.066 37.784L110.034 38.2259L110.362 36.0194L108.344 35.0695L107.066 37.784ZM105.018 43.032L107.435 44.8092L107.447 44.7925L107.459 44.7757L105.018 43.032ZM100.986 46.424L102.328 49.1073L102.328 49.1073L100.986 46.424ZM102.138 39.768L103.846 42.2346L103.877 42.2128L103.908 42.1902L102.138 39.768ZM104.698 36.248L101.929 35.0942L101.915 35.1272L101.902 35.1607L104.698 36.248ZM104.762 25.56L101.988 26.7022L101.994 26.717L102.001 26.7316L104.762 25.56ZM92.6663 23.64L90.3236 21.7659L90.3178 21.7733L92.6663 23.64ZM92.6663 38.424L90.295 40.2617L90.3063 40.2763L90.3178 40.2907L92.6663 38.424ZM95.6103 44.64C93.4917 44.64 91.6874 44.1186 90.1102 43.1208L86.9023 48.1912C89.5064 49.8387 92.4381 50.64 95.6103 50.64V44.64ZM90.1338 43.1359C88.6056 42.1489 87.3302 40.6989 86.3439 38.6558L80.9406 41.2642C82.3436 44.1705 84.3109 46.5178 86.8787 48.1761L90.1338 43.1359ZM86.362 38.6939C85.4369 36.7066 84.9143 34.1953 84.9143 31.064H78.9143C78.9143 34.8447 79.5436 38.264 80.9225 41.2261L86.362 38.6939ZM84.9143 31.064C84.9143 27.862 85.4745 25.3398 86.4535 23.3816L81.087 20.6984C79.5914 23.6896 78.9143 27.1833 78.9143 31.064H84.9143ZM86.4626 23.3634C87.4863 21.2807 88.7897 19.8448 90.3287 18.9026L87.1958 13.7854C84.5534 15.4032 82.5289 17.7646 81.0779 20.7166L86.4626 23.3634ZM90.3431 18.8937C91.9756 17.8815 93.812 17.36 95.9303 17.36V11.36C92.7578 11.36 89.8156 12.1611 87.1814 13.7943L90.3431 18.8937ZM95.9303 17.36C98.1315 17.36 99.715 17.9754 100.92 19.04L104.893 14.544C102.428 12.3659 99.361 11.36 95.9303 11.36V17.36ZM100.92 19.04C102.241 20.2078 103.129 21.7175 103.558 23.6993L109.422 22.4287C108.742 19.2905 107.241 16.6188 104.893 14.544L100.92 19.04ZM104.162 21.1722L103.33 22.1962L107.987 25.9798L108.819 24.9558L104.162 21.1722ZM108.658 24.088V0.983997H102.658V24.088H108.658ZM105.658 3.984H114.426V-2.016H105.658V3.984ZM111.426 0.983997V47H117.426V0.983997H111.426ZM114.426 44H106.554V50H114.426V44ZM109.549 46.8227L108.973 37.0947L102.983 37.4493L103.559 47.1773L109.549 46.8227ZM104.701 39.9865L105.789 40.4985L108.344 35.0695L107.256 34.5575L104.701 39.9865ZM104.099 37.3421C103.863 38.9279 103.34 40.2203 102.577 41.2883L107.459 44.7757C108.83 42.8571 109.672 40.6507 110.034 38.2259L104.099 37.3421ZM102.601 41.2548C101.818 42.3199 100.844 43.1411 99.6446 43.7407L102.328 49.1073C104.371 48.0855 106.085 46.6455 107.435 44.8092L102.601 41.2548ZM99.6446 43.7407C98.4736 44.3262 97.1465 44.64 95.6103 44.64V50.64C97.9994 50.64 100.256 50.1431 102.328 49.1073L99.6446 43.7407ZM98.1703 43.92C100.229 43.92 102.167 43.3966 103.846 42.2346L100.431 37.3014C99.8904 37.6754 99.1835 37.92 98.1703 37.92V43.92ZM103.908 42.1902C105.565 40.9794 106.731 39.2975 107.494 37.3353L101.902 35.1607C101.471 36.2705 100.93 36.9353 100.368 37.3458L103.908 42.1902ZM107.467 37.4018C108.296 35.4129 108.658 33.1664 108.658 30.744H102.658C102.658 32.5883 102.38 34.0111 101.929 35.0942L107.467 37.4018ZM108.658 30.744C108.658 28.4224 108.322 26.2696 107.524 24.3883L102.001 26.7316C102.397 27.6664 102.658 28.9696 102.658 30.744H108.658ZM107.536 24.4178C106.755 22.521 105.568 20.9136 103.91 19.7654L100.495 24.6986C101.055 25.0864 101.575 25.6977 101.988 26.7022L107.536 24.4178ZM103.91 19.7654C102.246 18.6133 100.334 18.08 98.2983 18.08V24.08C99.2494 24.08 99.9402 24.3147 100.495 24.6986L103.91 19.7654ZM98.2983 18.08C95.0946 18.08 92.3163 19.2751 90.3236 21.7659L95.0089 25.5141C95.7469 24.5916 96.7232 24.08 98.2983 24.08V18.08ZM90.3178 21.7733C88.4021 24.1833 87.6823 27.4181 87.6823 31H93.6823C93.6823 28.0966 94.285 26.4247 95.0147 25.5067L90.3178 21.7733ZM87.6823 31C87.6823 34.5896 88.4052 37.8233 90.295 40.2617L95.0375 36.5863C94.2819 35.6114 93.6823 33.8957 93.6823 31H87.6823ZM90.3178 40.2907C92.2738 42.7516 95.0174 43.92 98.1703 43.92V37.92C96.6297 37.92 95.704 37.4244 95.0147 36.5573L90.3178 40.2907ZM129.655 45.656L128.241 48.3018L128.25 48.3068L128.26 48.3117L129.655 45.656ZM123.895 39.96L126.522 38.5108L126.522 38.5108L123.895 39.96ZM123.895 22.04L126.522 23.4892L126.522 23.4892L123.895 22.04ZM129.591 16.344L128.177 13.6982L128.168 13.7033L128.158 13.7085L129.591 16.344ZM146.295 16.344L144.781 18.9336L144.799 18.9443L144.817 18.9548L146.295 16.344ZM151.479 21.656L148.827 23.0574L148.832 23.0679L148.838 23.0783L151.479 21.656ZM153.015 33.752V36.752H155.617L155.985 34.1763L153.015 33.752ZM127.479 33.752H124.479V36.752H127.479V33.752ZM127.479 27.672V24.672H124.479V27.672H127.479ZM149.175 27.672L150.2 30.4914L149.175 24.672V27.672ZM144.951 29.208H141.951V33.4911L145.976 32.0274L144.951 29.208ZM143.095 23L140.779 24.9071L140.796 24.9271L140.813 24.9468L143.095 23ZM133.751 21.976L132.129 19.4525L132.108 19.466L132.087 19.4798L133.751 21.976ZM131.127 25.432L133.913 26.5462L133.918 26.5328L133.923 26.5193L131.127 25.432ZM131.191 36.76L128.434 37.9418L128.454 37.9899L128.477 38.0374L131.191 36.76ZM134.007 40.024L132.45 42.5884L132.47 42.6004L132.49 42.6121L134.007 40.024ZM145.655 37.016L146.734 34.2166L144.191 33.2367L142.972 35.6744L145.655 37.016ZM152.631 39.704L155.407 40.8427L156.57 38.0068L153.71 36.9046L152.631 39.704ZM149.495 43.992L147.554 41.7045L147.537 41.7192L147.52 41.7343L149.495 43.992ZM144.567 46.744L145.477 49.6028L145.496 49.5965L145.516 49.59L144.567 46.744ZM138.487 44.64C135.513 44.64 133.065 44.0584 131.051 43.0003L128.26 48.3117C131.281 49.8989 134.72 50.64 138.487 50.64V44.64ZM131.069 43.0102C129.11 41.9629 127.609 40.4817 126.522 38.5108L121.269 41.4092C122.912 44.3876 125.251 46.7037 128.241 48.3018L131.069 43.0102ZM126.522 38.5108C125.453 36.5736 124.847 34.1109 124.847 31H118.847C118.847 34.8865 119.607 38.3971 121.269 41.4092L126.522 38.5108ZM124.847 31C124.847 27.8891 125.453 25.4264 126.522 23.4892L121.269 20.5908C119.607 23.6029 118.847 27.1135 118.847 31H124.847ZM126.522 23.4892C127.617 21.5046 129.106 20.0227 131.025 18.9794L128.158 13.7085C125.212 15.3107 122.904 17.626 121.269 20.5908L126.522 23.4892ZM131.005 18.9898C132.993 17.9275 135.313 17.36 138.039 17.36V11.36C134.451 11.36 131.139 12.1152 128.177 13.6982L131.005 18.9898ZM138.039 17.36C140.875 17.36 143.076 17.9367 144.781 18.9336L147.81 13.7544C144.992 12.106 141.689 11.36 138.039 11.36V17.36ZM144.817 18.9548C146.588 19.957 147.904 21.3117 148.827 23.0574L154.132 20.2546C152.665 17.4776 150.525 15.291 147.773 13.7332L144.817 18.9548ZM148.838 23.0783C149.767 24.804 150.271 26.8422 150.271 29.272H156.271C156.271 25.9844 155.581 22.9454 154.121 20.2337L148.838 23.0783ZM150.271 29.272C150.271 30.0757 150.251 30.8306 150.212 31.5376L156.203 31.8704C156.249 31.0414 156.271 30.1749 156.271 29.272H150.271ZM150.212 31.5376C150.173 32.2414 150.116 32.8354 150.045 33.3277L155.985 34.1763C156.085 33.4739 156.156 32.7026 156.203 31.8704L150.212 31.5376ZM153.015 30.752H127.479V36.752H153.015V30.752ZM130.479 33.752V27.672H124.479V33.752H130.479ZM127.479 30.672H149.175V24.672H127.479V30.672ZM148.15 24.8526L143.926 26.3886L145.976 32.0274L150.2 30.4914L148.15 24.8526ZM147.951 29.208C147.951 26.0957 147.237 23.2324 145.378 21.0532L140.813 24.9468C141.429 25.6689 141.951 26.9443 141.951 29.208H147.951ZM145.411 21.0929C143.541 18.8224 140.91 17.824 137.975 17.824V23.824C139.477 23.824 140.26 24.2763 140.779 24.9071L145.411 21.0929ZM137.975 17.824C135.862 17.824 133.873 18.3311 132.129 19.4525L135.374 24.4995C136.018 24.0849 136.846 23.824 137.975 23.824V17.824ZM132.087 19.4798C130.33 20.651 129.109 22.3458 128.331 24.3447L133.923 26.5193C134.341 25.4462 134.868 24.837 135.415 24.4721L132.087 19.4798ZM128.342 24.3178C127.556 26.2834 127.231 28.5941 127.231 31.128H133.231C133.231 29.0539 133.504 27.5672 133.913 26.5462L128.342 24.3178ZM127.231 31.128C127.231 33.6471 127.584 35.9592 128.434 37.9418L133.949 35.5782C133.518 34.5741 133.231 33.1315 133.231 31.128H127.231ZM128.477 38.0374C129.372 39.9408 130.681 41.5139 132.45 42.5884L135.564 37.4596C134.945 37.0835 134.375 36.4806 133.906 35.4826L128.477 38.0374ZM132.49 42.6121C134.268 43.6544 136.285 44.112 138.423 44.112V38.112C137.148 38.112 136.221 37.8443 135.524 37.4359L132.49 42.6121ZM138.423 44.112C140.66 44.112 142.786 43.6832 144.566 42.5627L141.369 37.4853C140.844 37.8155 139.941 38.112 138.423 38.112V44.112ZM144.566 42.5627C146.206 41.5298 147.466 40.1021 148.339 38.3576L142.972 35.6744C142.564 36.4899 142.032 37.0675 141.369 37.4853L144.566 42.5627ZM144.577 39.8154L151.553 42.5034L153.71 36.9046L146.734 34.2166L144.577 39.8154ZM149.856 38.5653C149.36 39.773 148.606 40.8119 147.554 41.7045L151.436 46.2795C153.2 44.7828 154.537 42.963 155.407 40.8427L149.856 38.5653ZM147.52 41.7343C146.487 42.6379 145.204 43.3694 143.619 43.898L145.516 49.59C147.77 48.8386 149.773 47.7355 151.471 46.2497L147.52 41.7343ZM143.658 43.8852C142.103 44.3797 140.387 44.64 138.487 44.64V50.64C140.94 50.64 143.276 50.3029 145.477 49.6028L143.658 43.8852Z" fill="#DBDBDB" fill-opacity="0.78" mask="url(#path-1-outside-1_105_439)"/>
</svg>
