<svg width="256" height="90" viewBox="0 0 256 90" fill="none" xmlns="http://www.w3.org/2000/svg">
<path d="M64.0928 24.6C63.4528 26.52 62.4928 28.152 61.2128 29.496C59.9328 30.808 58.4288 31.8 56.7008 32.472C54.9728 33.144 53.0688 33.48 50.9888 33.48C47.9488 33.48 45.3088 32.824 43.0688 31.512C40.8288 30.2 39.1008 28.328 37.8848 25.896C36.6688 23.464 36.0608 20.552 36.0608 17.16C36.0608 13.768 36.6688 10.856 37.8848 8.424C39.1008 5.992 40.8288 4.12 43.0688 2.808C45.3088 1.496 47.9328 0.839999 50.9408 0.839999C53.0208 0.839999 54.8928 1.128 56.5568 1.704C58.2528 2.28 59.6928 3.144 60.8768 4.296C62.0608 5.448 62.9728 6.888 63.6128 8.616L58.7648 10.776C58.1248 8.888 57.1968 7.512 55.9808 6.648C54.7648 5.752 53.1808 5.304 51.2288 5.304C49.2768 5.304 47.5648 5.768 46.0928 6.696C44.6208 7.624 43.4688 8.968 42.6368 10.728C41.8368 12.488 41.4368 14.632 41.4368 17.16C41.4368 19.656 41.8208 21.8 42.5888 23.592C43.3568 25.352 44.4608 26.696 45.9008 27.624C47.3408 28.552 49.0688 29.016 51.0848 29.016C53.0368 29.016 54.7168 28.52 56.1248 27.528C57.5648 26.504 58.5888 24.984 59.1968 22.968L64.0928 24.6ZM83.8013 0.839999C86.8733 0.839999 89.5293 1.496 91.7693 2.808C94.0093 4.12 95.7373 5.992 96.9533 8.424C98.1693 10.856 98.7773 13.768 98.7773 17.16C98.7773 20.552 98.1693 23.464 96.9533 25.896C95.7373 28.328 94.0093 30.2 91.7693 31.512C89.5293 32.824 86.8733 33.48 83.8013 33.48C80.7613 33.48 78.1213 32.824 75.8813 31.512C73.6413 30.2 71.9133 28.328 70.6973 25.896C69.4813 23.464 68.8733 20.552 68.8733 17.16C68.8733 13.768 69.4813 10.856 70.6973 8.424C71.9133 5.992 73.6413 4.12 75.8813 2.808C78.1213 1.496 80.7613 0.839999 83.8013 0.839999ZM83.8013 5.304C81.8173 5.304 80.1053 5.768 78.6653 6.696C77.2573 7.624 76.1693 8.968 75.4013 10.728C74.6333 12.488 74.2493 14.632 74.2493 17.16C74.2493 19.656 74.6333 21.8 75.4013 23.592C76.1693 25.352 77.2573 26.696 78.6653 27.624C80.1053 28.552 81.8173 29.016 83.8013 29.016C85.8173 29.016 87.5293 28.552 88.9373 27.624C90.3773 26.696 91.4813 25.352 92.2493 23.592C93.0173 21.8 93.4013 19.656 93.4013 17.16C93.4013 14.632 93.0173 12.488 92.2493 10.728C91.4813 8.968 90.3773 7.624 88.9373 6.696C87.5293 5.768 85.8173 5.304 83.8013 5.304ZM117.599 1.32C122.559 1.32 126.415 2.696 129.167 5.448C131.951 8.168 133.343 12.072 133.343 17.16C133.343 22.248 131.951 26.168 129.167 28.92C126.415 31.64 122.559 33 117.599 33H106.415V1.32H117.599ZM117.599 28.632C120.959 28.632 123.519 27.64 125.279 25.656C127.071 23.64 127.967 20.808 127.967 17.16C127.967 13.512 127.071 10.696 125.279 8.712C123.519 6.696 120.959 5.688 117.599 5.688H111.551V28.632H117.599ZM146.098 1.32V33H140.962V1.32H146.098ZM181.461 1.32V33H175.365L163.125 13.032L160.053 7.416H160.005L160.197 12.552V33H155.493V1.32H161.541L173.733 21.24L176.853 26.952H176.901L176.709 21.768V1.32H181.461ZM203.701 33.48C200.725 33.48 198.149 32.824 195.973 31.512C193.797 30.2 192.101 28.344 190.885 25.944C189.669 23.512 189.061 20.584 189.061 17.16C189.061 13.8 189.685 10.904 190.933 8.472C192.213 6.04 194.005 4.168 196.309 2.856C198.645 1.512 201.317 0.839999 204.325 0.839999C207.621 0.839999 210.277 1.448 212.293 2.664C214.341 3.88 215.973 5.768 217.189 8.328L212.437 10.584C211.829 8.824 210.821 7.512 209.413 6.648C208.037 5.752 206.357 5.304 204.373 5.304C202.389 5.304 200.645 5.768 199.141 6.696C197.669 7.624 196.517 8.984 195.685 10.776C194.853 12.536 194.437 14.664 194.437 17.16C194.437 19.688 194.805 21.848 195.541 23.64C196.277 25.4 197.381 26.744 198.853 27.672C200.357 28.6 202.197 29.064 204.373 29.064C205.557 29.064 206.661 28.92 207.685 28.632C208.709 28.312 209.605 27.864 210.373 27.288C211.141 26.68 211.733 25.928 212.149 25.032C212.597 24.104 212.821 23.016 212.821 21.768V20.856H203.605V16.68H217.381V33H213.541L213.253 26.616L214.213 27.096C213.445 29.112 212.165 30.68 210.373 31.8C208.613 32.92 206.389 33.48 203.701 33.48ZM13.1616 57.32C15.4336 57.32 17.3856 57.72 19.0176 58.52C20.6816 59.32 21.9776 60.456 22.9056 61.928C23.8336 63.4 24.2976 65.176 24.2976 67.256C24.2976 69.304 23.8336 71.08 22.9056 72.584C21.9776 74.056 20.6816 75.192 19.0176 75.992C17.3856 76.792 15.4336 77.192 13.1616 77.192H6.10563V89H0.969625V57.32H13.1616ZM12.3456 72.776C14.6176 72.776 16.2816 72.312 17.3376 71.384C18.4256 70.424 18.9696 69.048 18.9696 67.256C18.9696 65.432 18.4256 64.056 17.3376 63.128C16.2816 62.168 14.6176 61.688 12.3456 61.688H6.10563V72.776H12.3456ZM43.9754 57.32C47.3674 57.32 50.0554 58.168 52.0394 59.864C54.0554 61.56 55.0634 63.848 55.0634 66.728C55.0634 69.704 54.0554 72.008 52.0394 73.64C50.0554 75.24 47.3674 76.04 43.9754 76.04L43.4954 76.328H36.1514V89H31.0634V57.32H43.9754ZM43.5914 72.056C45.6714 72.056 47.2074 71.64 48.1994 70.808C49.2234 69.944 49.7354 68.632 49.7354 66.872C49.7354 65.144 49.2234 63.848 48.1994 62.984C47.2074 62.12 45.6714 61.688 43.5914 61.688H36.1514V72.056H43.5914ZM46.6154 73.112L56.9354 89H51.0314L42.1994 75.128L46.6154 73.112ZM76.1841 56.84C79.2561 56.84 81.9121 57.496 84.1521 58.808C86.3921 60.12 88.1201 61.992 89.3361 64.424C90.5521 66.856 91.1601 69.768 91.1601 73.16C91.1601 76.552 90.5521 79.464 89.3361 81.896C88.1201 84.328 86.3921 86.2 84.1521 87.512C81.9121 88.824 79.2561 89.48 76.1841 89.48C73.1441 89.48 70.5041 88.824 68.2641 87.512C66.0241 86.2 64.2961 84.328 63.0801 81.896C61.8641 79.464 61.2561 76.552 61.2561 73.16C61.2561 69.768 61.8641 66.856 63.0801 64.424C64.2961 61.992 66.0241 60.12 68.2641 58.808C70.5041 57.496 73.1441 56.84 76.1841 56.84ZM76.1841 61.304C74.2001 61.304 72.4881 61.768 71.0481 62.696C69.6401 63.624 68.5521 64.968 67.7841 66.728C67.0161 68.488 66.6321 70.632 66.6321 73.16C66.6321 75.656 67.0161 77.8 67.7841 79.592C68.5521 81.352 69.6401 82.696 71.0481 83.624C72.4881 84.552 74.2001 85.016 76.1841 85.016C78.2001 85.016 79.9121 84.552 81.3201 83.624C82.7601 82.696 83.8641 81.352 84.6321 79.592C85.4001 77.8 85.7841 75.656 85.7841 73.16C85.7841 70.632 85.4001 68.488 84.6321 66.728C83.8641 64.968 82.7601 63.624 81.3201 62.696C79.9121 61.768 78.2001 61.304 76.1841 61.304ZM98.7978 89V57.32H111.278C115.086 57.32 117.87 58.088 119.63 59.624C121.39 61.16 122.27 63.288 122.27 66.008C122.27 67.672 121.79 69.16 120.83 70.472C119.87 71.752 118.462 72.568 116.606 72.92V72.968C118.654 73.288 120.238 74.136 121.358 75.512C122.51 76.856 123.086 78.424 123.086 80.216C123.086 82.936 122.094 85.08 120.11 86.648C118.126 88.216 115.246 89 111.47 89H98.7978ZM103.838 84.728H111.71C113.726 84.728 115.23 84.312 116.222 83.48C117.246 82.648 117.758 81.48 117.758 79.976C117.758 78.472 117.246 77.304 116.222 76.472C115.23 75.64 113.726 75.224 111.71 75.224H103.838V84.728ZM103.838 70.952H110.894C114.926 70.952 116.942 69.4 116.942 66.296C116.942 63.192 114.926 61.64 110.894 61.64H103.838V70.952ZM135.715 84.584H153.187V89H130.579V57.32H135.715V84.584ZM159.313 89V57.32H182.257V61.736H164.449V70.856H178.369V75.176H164.449V84.584H182.929V89H159.313ZM222.229 57.32V89H217.477V70.664L217.861 61.928H217.813L208.165 89H203.893L194.245 61.928H194.197L194.581 70.664V89H189.829V57.32H197.461L203.845 75.656L206.053 83.192H206.149L208.405 75.656L214.741 57.32H222.229ZM242.442 56.84C245.29 56.84 247.754 57.384 249.834 58.472C251.914 59.528 253.674 61.096 255.114 63.176L251.658 66.488C250.442 64.632 249.066 63.304 247.53 62.504C246.026 61.672 244.234 61.256 242.154 61.256C240.618 61.256 239.354 61.464 238.362 61.88C237.37 62.296 236.634 62.856 236.154 63.56C235.706 64.232 235.482 65 235.482 65.864C235.482 66.856 235.818 67.72 236.49 68.456C237.194 69.192 238.49 69.768 240.378 70.184L246.81 71.624C249.882 72.296 252.058 73.32 253.338 74.696C254.618 76.072 255.258 77.816 255.258 79.928C255.258 81.88 254.73 83.576 253.674 85.016C252.618 86.456 251.146 87.56 249.258 88.328C247.402 89.096 245.21 89.48 242.682 89.48C240.442 89.48 238.426 89.192 236.634 88.616C234.842 88.04 233.274 87.256 231.93 86.264C230.586 85.272 229.482 84.136 228.618 82.856L232.17 79.304C232.842 80.424 233.69 81.432 234.714 82.328C235.738 83.192 236.922 83.864 238.266 84.344C239.642 84.824 241.162 85.064 242.826 85.064C244.298 85.064 245.562 84.888 246.618 84.536C247.706 84.184 248.522 83.672 249.066 83C249.642 82.296 249.93 81.464 249.93 80.504C249.93 79.576 249.61 78.76 248.97 78.056C248.362 77.352 247.21 76.808 245.514 76.424L238.554 74.84C236.634 74.424 235.05 73.832 233.802 73.064C232.554 72.296 231.626 71.368 231.018 70.28C230.41 69.16 230.105 67.912 230.105 66.536C230.105 64.744 230.586 63.128 231.546 61.688C232.538 60.216 233.962 59.048 235.818 58.184C237.674 57.288 239.882 56.84 242.442 56.84Z" fill="white"/>
</svg>
