<svg width="161" height="156" viewBox="0 0 161 156" fill="none" xmlns="http://www.w3.org/2000/svg">
<path d="M161 78C161 121.078 126.051 156 82.9395 156C56.7189 156 33.5177 143.082 19.3624 123.268C10.2437 110.504 4.87891 94.8779 4.87891 78C4.87891 34.9218 39.8278 0 82.9395 0C126.051 0 161 34.9218 161 78Z" fill="url(#paint0_linear_68_905)"/>
<path d="M5.27559 142.665L18.2603 124.412C19.5337 122.622 22.0123 122.194 23.8123 123.453L45.0042 138.276C48.2095 140.518 46.6231 145.554 42.7116 145.554H36.2424L9.03074 148.953C5.57593 149.384 3.25736 145.502 5.27559 142.665Z" fill="#F27E20"/>
<path d="M50.2476 78.7861C50.2476 77.1541 50.6236 75.6901 51.3756 74.3941C52.1436 73.0981 53.1756 72.0901 54.4716 71.3701C55.7836 70.6341 57.2156 70.2661 58.7676 70.2661C60.5436 70.2661 62.1196 70.7061 63.4956 71.5861C64.8876 72.4501 65.8956 73.6821 66.5196 75.2821H63.2316C62.7996 74.4021 62.1996 73.7461 61.4316 73.3141C60.6636 72.8821 59.7756 72.6661 58.7676 72.6661C57.6636 72.6661 56.6796 72.9141 55.8156 73.4101C54.9516 73.9061 54.2716 74.6181 53.7756 75.5461C53.2956 76.4741 53.0556 77.5541 53.0556 78.7861C53.0556 80.0181 53.2956 81.0981 53.7756 82.0261C54.2716 82.9541 54.9516 83.6741 55.8156 84.1861C56.6796 84.6821 57.6636 84.9301 58.7676 84.9301C59.7756 84.9301 60.6636 84.7141 61.4316 84.2821C62.1996 83.8501 62.7996 83.1941 63.2316 82.3141H66.5196C65.8956 83.9141 64.8876 85.1461 63.4956 86.0101C62.1196 86.8741 60.5436 87.3061 58.7676 87.3061C57.1996 87.3061 55.7676 86.9461 54.4716 86.2261C53.1756 85.4901 52.1436 84.4741 51.3756 83.1781C50.6236 81.8821 50.2476 80.4181 50.2476 78.7861ZM83.0421 70.4821V87.1621H80.3061V79.8661H72.4581V87.1621H69.7221V70.4821H72.4581V77.6341H80.3061V70.4821H83.0421ZM96.7 83.7541H89.716L88.516 87.1621H85.66L91.636 70.4581H94.804L100.78 87.1621H97.9L96.7 83.7541ZM95.932 81.5221L93.22 73.7701L90.484 81.5221H95.932ZM114.154 70.4821V72.7141H109.714V87.1621H106.978V72.7141H102.514V70.4821H114.154Z" fill="#E3C5BC"/>
<defs>
<linearGradient id="paint0_linear_68_905" x1="35.2" y1="-1.71841e-06" x2="126.7" y2="162.185" gradientUnits="userSpaceOnUse">
<stop stop-color="#DE5B32"/>
<stop offset="1" stop-color="#FF9315"/>
</linearGradient>
</defs>
</svg>
