<svg width="349" height="153" viewBox="0 0 349 153" fill="none" xmlns="http://www.w3.org/2000/svg">
<path d="M30.96 52.6C30.32 54.52 29.36 56.152 28.08 57.496C26.8 58.808 25.296 59.8 23.568 60.472C21.84 61.144 19.936 61.48 17.856 61.48C14.816 61.48 12.176 60.824 9.936 59.512C7.696 58.2 5.968 56.328 4.752 53.896C3.536 51.464 2.928 48.552 2.928 45.16C2.928 41.768 3.536 38.856 4.752 36.424C5.968 33.992 7.696 32.12 9.936 30.808C12.176 29.496 14.8 28.84 17.808 28.84C19.888 28.84 21.76 29.128 23.424 29.704C25.12 30.28 26.56 31.144 27.744 32.296C28.928 33.448 29.84 34.888 30.48 36.616L25.632 38.776C24.992 36.888 24.064 35.512 22.848 34.648C21.632 33.752 20.048 33.304 18.096 33.304C16.144 33.304 14.432 33.768 12.96 34.696C11.488 35.624 10.336 36.968 9.504 38.728C8.704 40.488 8.304 42.632 8.304 45.16C8.304 47.656 8.688 49.8 9.456 51.592C10.224 53.352 11.328 54.696 12.768 55.624C14.208 56.552 15.936 57.016 17.952 57.016C19.904 57.016 21.584 56.52 22.992 55.528C24.432 54.504 25.456 52.984 26.064 50.968L30.96 52.6ZM47.2125 36.52C49.5485 36.52 51.6125 37.016 53.4045 38.008C55.1965 39 56.5885 40.44 57.5805 42.328C58.6045 44.184 59.1165 46.408 59.1165 49C59.1165 51.592 58.6045 53.832 57.5805 55.72C56.5885 57.576 55.1965 59 53.4045 59.992C51.6125 60.984 49.5485 61.48 47.2125 61.48C44.8765 61.48 42.8125 60.984 41.0205 59.992C39.2285 59 37.8205 57.576 36.7965 55.72C35.7725 53.832 35.2605 51.592 35.2605 49C35.2605 46.408 35.7725 44.184 36.7965 42.328C37.8205 40.44 39.2285 39 41.0205 38.008C42.8125 37.016 44.8765 36.52 47.2125 36.52ZM47.2125 40.552C45.7725 40.552 44.5405 40.888 43.5165 41.56C42.5245 42.2 41.7565 43.144 41.2125 44.392C40.6685 45.64 40.3965 47.176 40.3965 49C40.3965 50.792 40.6685 52.328 41.2125 53.608C41.7565 54.856 42.5245 55.816 43.5165 56.488C44.5405 57.128 45.7725 57.448 47.2125 57.448C48.6525 57.448 49.8685 57.128 50.8605 56.488C51.8525 55.816 52.6205 54.856 53.1645 53.608C53.7085 52.328 53.9805 50.792 53.9805 49C53.9805 47.176 53.7085 45.64 53.1645 44.392C52.6205 43.144 51.8525 42.2 50.8605 41.56C49.8685 40.888 48.6525 40.552 47.2125 40.552ZM74.7938 61.48C72.8098 61.48 71.0018 60.984 69.3698 59.992C67.7698 59 66.5058 57.576 65.5778 55.72C64.6498 53.864 64.1858 51.64 64.1858 49.048C64.1858 46.36 64.6818 44.088 65.6738 42.232C66.6658 40.376 67.9938 38.968 69.6578 38.008C71.3218 37.016 73.1458 36.52 75.1298 36.52C77.1778 36.52 78.9058 37.08 80.3138 38.2C81.7218 39.32 82.6658 40.776 83.1458 42.568L82.5698 43.096V26.2H87.7058V61H83.1458L82.7618 54.472L83.4338 54.52C83.2098 55.96 82.6818 57.208 81.8498 58.264C81.0178 59.288 79.9778 60.088 78.7298 60.664C77.5138 61.208 76.2018 61.48 74.7938 61.48ZM75.8978 57.352C77.2738 57.352 78.4578 57 79.4498 56.296C80.4418 55.592 81.2098 54.6 81.7538 53.32C82.2978 52.04 82.5698 50.504 82.5698 48.712C82.5698 47.048 82.2978 45.624 81.7538 44.44C81.2098 43.224 80.4418 42.296 79.4498 41.656C78.4898 41.016 77.3698 40.696 76.0898 40.696C73.9458 40.696 72.2818 41.432 71.0978 42.904C69.9138 44.376 69.3218 46.408 69.3218 49C69.3218 51.592 69.8978 53.64 71.0498 55.144C72.2018 56.616 73.8178 57.352 75.8978 57.352ZM106.232 61.48C103.832 61.48 101.72 60.984 99.8955 59.992C98.0715 59 96.6475 57.576 95.6235 55.72C94.6315 53.832 94.1355 51.592 94.1355 49C94.1355 46.408 94.6315 44.184 95.6235 42.328C96.6475 40.44 98.0555 39 99.8475 38.008C101.64 37.016 103.672 36.52 105.944 36.52C108.28 36.52 110.264 37 111.896 37.96C113.528 38.92 114.776 40.232 115.64 41.896C116.504 43.56 116.936 45.448 116.936 47.56C116.936 48.136 116.92 48.68 116.888 49.192C116.856 49.704 116.808 50.152 116.744 50.536H97.4475V46.6H114.488L111.944 47.368C111.944 45.192 111.4 43.528 110.312 42.376C109.224 41.192 107.736 40.6 105.848 40.6C104.472 40.6 103.272 40.92 102.248 41.56C101.224 42.2 100.44 43.16 99.8955 44.44C99.3515 45.688 99.0795 47.224 99.0795 49.048C99.0795 50.84 99.3675 52.36 99.9435 53.608C100.52 54.856 101.336 55.8 102.392 56.44C103.448 57.08 104.696 57.4 106.136 57.4C107.736 57.4 109.032 57.096 110.024 56.488C111.016 55.88 111.8 55.032 112.376 53.944L116.456 55.864C115.88 57.016 115.096 58.024 114.104 58.888C113.144 59.72 111.992 60.36 110.648 60.808C109.304 61.256 107.832 61.48 106.232 61.48Z" fill="white"/>
<path d="M148.24 34.52V119H134.544V34.52H148.24ZM236.142 34.52V46.296H207.214V119H193.518V46.296H164.59V34.52H236.142Z" fill="white"/>
</svg>
