<svg width="455" height="175" viewBox="0 0 455 175" fill="none" xmlns="http://www.w3.org/2000/svg">
<path d="M38.5815 141.896C32.6935 141.896 27.4028 140.872 22.7095 138.824C18.1015 136.691 14.4748 133.789 11.8295 130.12C9.18417 126.365 7.81883 122.056 7.7335 117.192H20.1495C20.5762 121.373 22.2828 124.915 25.2695 127.816C28.3415 130.632 32.7788 132.04 38.5815 132.04C44.1282 132.04 48.4802 130.675 51.6375 127.944C54.8802 125.128 56.5015 121.544 56.5015 117.192C56.5015 113.779 55.5628 111.005 53.6855 108.872C51.8082 106.739 49.4615 105.117 46.6455 104.008C43.8295 102.899 40.0322 101.704 35.2535 100.424C29.3655 98.888 24.6295 97.352 21.0455 95.816C17.5468 94.28 14.5175 91.8907 11.9575 88.648C9.48283 85.32 8.2455 80.8827 8.2455 75.336C8.2455 70.472 9.48283 66.1627 11.9575 62.408C14.4322 58.6533 17.8882 55.752 22.3255 53.704C26.8482 51.656 32.0108 50.632 37.8135 50.632C46.1762 50.632 53.0028 52.7227 58.2935 56.904C63.6695 61.0853 66.6988 66.632 67.3815 73.544H54.5815C54.1548 70.1307 52.3628 67.144 49.2055 64.584C46.0482 61.9387 41.8668 60.616 36.6615 60.616C31.7975 60.616 27.8295 61.896 24.7575 64.456C21.6855 66.9307 20.1495 70.4293 20.1495 74.952C20.1495 78.1947 21.0455 80.84 22.8375 82.888C24.7148 84.936 26.9762 86.5147 29.6215 87.624C32.3522 88.648 36.1495 89.8427 41.0135 91.208C46.9015 92.8293 51.6375 94.4507 55.2215 96.072C58.8055 97.608 61.8775 100.04 64.4375 103.368C66.9975 106.611 68.2775 111.048 68.2775 116.68C68.2775 121.032 67.1255 125.128 64.8215 128.968C62.5175 132.808 59.1042 135.923 54.5815 138.312C50.0588 140.701 44.7255 141.896 38.5815 141.896ZM125.867 141.896C117.589 141.896 110.037 139.976 103.211 136.136C96.3838 132.211 90.9652 126.792 86.9545 119.88C83.0292 112.883 81.0665 105.032 81.0665 96.328C81.0665 87.624 83.0292 79.816 86.9545 72.904C90.9652 65.9067 96.3838 60.488 103.211 56.648C110.037 52.7227 117.589 50.76 125.867 50.76C134.229 50.76 141.824 52.7227 148.651 56.648C155.477 60.488 160.853 65.864 164.779 72.776C168.704 79.688 170.667 87.5387 170.667 96.328C170.667 105.117 168.704 112.968 164.779 119.88C160.853 126.792 155.477 132.211 148.651 136.136C141.824 139.976 134.229 141.896 125.867 141.896ZM125.867 131.784C132.096 131.784 137.685 130.333 142.635 127.432C147.669 124.531 151.595 120.392 154.411 115.016C157.312 109.64 158.763 103.411 158.763 96.328C158.763 89.16 157.312 82.9307 154.411 77.64C151.595 72.264 147.712 68.1253 142.763 65.224C137.813 62.3227 132.181 60.872 125.867 60.872C119.552 60.872 113.92 62.3227 108.971 65.224C104.021 68.1253 100.096 72.264 97.1945 77.64C94.3785 82.9307 92.9705 89.16 92.9705 96.328C92.9705 103.411 94.3785 109.64 97.1945 115.016C100.096 120.392 104.021 124.531 108.971 127.432C114.005 130.333 119.637 131.784 125.867 131.784ZM197.692 131.528H228.924V141H186.044V51.784H197.692V131.528ZM315.022 51.784L281.358 141H267.918L234.254 51.784H246.67L274.702 128.712L302.734 51.784H315.022ZM339.442 61.256V91.08H371.954V100.68H339.442V131.4H375.794V141H327.794V51.656H375.794V61.256H339.442Z" fill="url(#paint0_linear_55_78)"/>
<path d="M407.607 79.848C405.943 79.848 404.535 79.272 403.383 78.12C402.231 76.968 401.655 75.56 401.655 73.896C401.655 72.232 402.231 70.824 403.383 69.672C404.535 68.52 405.943 67.944 407.607 67.944C409.207 67.944 410.551 68.52 411.639 69.672C412.791 70.824 413.367 72.232 413.367 73.896C413.367 75.56 412.791 76.968 411.639 78.12C410.551 79.272 409.207 79.848 407.607 79.848ZM411.831 88.392V141H403.095V88.392H411.831ZM437.376 95.592V126.6C437.376 129.16 437.92 130.984 439.008 132.072C440.096 133.096 441.984 133.608 444.672 133.608H451.104V141H443.232C438.368 141 434.72 139.88 432.288 137.64C429.856 135.4 428.64 131.72 428.64 126.6V95.592H421.824V88.392H428.64V75.144H437.376V88.392H451.104V95.592H437.376Z" fill="#97959F"/>
<circle cx="407" cy="67" r="13" fill="url(#paint1_linear_55_78)"/>
<defs>
<linearGradient id="paint0_linear_55_78" x1="61.3878" y1="33.6538" x2="356.304" y2="66.3562" gradientUnits="userSpaceOnUse">
<stop stop-color="#DE5B32"/>
<stop offset="1" stop-color="#FF9315"/>
</linearGradient>
<linearGradient id="paint1_linear_55_78" x1="394" y1="54" x2="415.667" y2="77.1111" gradientUnits="userSpaceOnUse">
<stop stop-color="#DE5B32"/>
<stop offset="1" stop-color="#FF9315"/>
</linearGradient>
</defs>
</svg>
