<svg width="548" height="142" viewBox="0 0 548 142" fill="none" xmlns="http://www.w3.org/2000/svg">
<path d="M116.582 141.896C110.694 141.896 105.403 140.872 100.71 138.824C96.1015 136.691 92.4748 133.789 89.8295 130.12C87.1842 126.365 85.8188 122.056 85.7335 117.192H98.1495C98.5762 121.373 100.283 124.915 103.27 127.816C106.342 130.632 110.779 132.04 116.582 132.04C122.128 132.04 126.48 130.675 129.638 127.944C132.88 125.128 134.502 121.544 134.502 117.192C134.502 113.779 133.563 111.005 131.686 108.872C129.808 106.739 127.462 105.117 124.646 104.008C121.83 102.899 118.032 101.704 113.254 100.424C107.366 98.888 102.63 97.352 99.0455 95.816C95.5468 94.28 92.5175 91.8907 89.9575 88.648C87.4828 85.32 86.2455 80.8827 86.2455 75.336C86.2455 70.472 87.4828 66.1627 89.9575 62.408C92.4322 58.6533 95.8882 55.752 100.326 53.704C104.848 51.656 110.011 50.632 115.814 50.632C124.176 50.632 131.003 52.7227 136.294 56.904C141.67 61.0853 144.699 66.632 145.382 73.544H132.582C132.155 70.1307 130.363 67.144 127.206 64.584C124.048 61.9387 119.867 60.616 114.662 60.616C109.798 60.616 105.83 61.896 102.758 64.456C99.6855 66.9307 98.1495 70.4293 98.1495 74.952C98.1495 78.1947 99.0455 80.84 100.838 82.888C102.715 84.936 104.976 86.5147 107.622 87.624C110.352 88.648 114.15 89.8427 119.014 91.208C124.902 92.8293 129.638 94.4507 133.222 96.072C136.806 97.608 139.878 100.04 142.438 103.368C144.998 106.611 146.278 111.048 146.278 116.68C146.278 121.032 145.126 125.128 142.822 128.968C140.518 132.808 137.104 135.923 132.582 138.312C128.059 140.701 122.726 141.896 116.582 141.896ZM203.867 141.896C195.589 141.896 188.037 139.976 181.211 136.136C174.384 132.211 168.965 126.792 164.955 119.88C161.029 112.883 159.067 105.032 159.067 96.328C159.067 87.624 161.029 79.816 164.955 72.904C168.965 65.9067 174.384 60.488 181.211 56.648C188.037 52.7227 195.589 50.76 203.867 50.76C212.229 50.76 219.824 52.7227 226.651 56.648C233.477 60.488 238.853 65.864 242.779 72.776C246.704 79.688 248.667 87.5387 248.667 96.328C248.667 105.117 246.704 112.968 242.779 119.88C238.853 126.792 233.477 132.211 226.651 136.136C219.824 139.976 212.229 141.896 203.867 141.896ZM203.867 131.784C210.096 131.784 215.685 130.333 220.635 127.432C225.669 124.531 229.595 120.392 232.411 115.016C235.312 109.64 236.763 103.411 236.763 96.328C236.763 89.16 235.312 82.9307 232.411 77.64C229.595 72.264 225.712 68.1253 220.763 65.224C215.813 62.3227 210.181 60.872 203.867 60.872C197.552 60.872 191.92 62.3227 186.971 65.224C182.021 68.1253 178.096 72.264 175.195 77.64C172.379 82.9307 170.971 89.16 170.971 96.328C170.971 103.411 172.379 109.64 175.195 115.016C178.096 120.392 182.021 124.531 186.971 127.432C192.005 130.333 197.637 131.784 203.867 131.784ZM275.692 131.528H306.924V141H264.044V51.784H275.692V131.528ZM393.022 51.784L359.358 141H345.918L312.254 51.784H324.67L352.702 128.712L380.734 51.784H393.022ZM417.442 61.256V91.08H449.954V100.68H417.442V131.4H453.794V141H405.794V51.656H453.794V61.256H417.442Z" fill="url(#paint0_linear_22_135)"/>
<path d="M500.607 79.848C498.943 79.848 497.535 79.272 496.383 78.12C495.231 76.968 494.655 75.56 494.655 73.896C494.655 72.232 495.231 70.824 496.383 69.672C497.535 68.52 498.943 67.944 500.607 67.944C502.207 67.944 503.551 68.52 504.639 69.672C505.791 70.824 506.367 72.232 506.367 73.896C506.367 75.56 505.791 76.968 504.639 78.12C503.551 79.272 502.207 79.848 500.607 79.848ZM504.831 88.392V141H496.095V88.392H504.831ZM530.376 95.592V126.6C530.376 129.16 530.92 130.984 532.008 132.072C533.096 133.096 534.984 133.608 537.672 133.608H544.104V141H536.232C531.368 141 527.72 139.88 525.288 137.64C522.856 135.4 521.64 131.72 521.64 126.6V95.592H514.824V88.392H521.64V75.144H530.376V88.392H544.104V95.592H530.376Z" fill="#97959F"/>
<circle cx="500" cy="67" r="13" fill="url(#paint1_linear_22_135)"/>
<defs>
<linearGradient id="paint0_linear_22_135" x1="86.3265" y1="10" x2="415.499" y2="182.744" gradientUnits="userSpaceOnUse">
<stop stop-color="#DE5B32"/>
<stop offset="1" stop-color="#FF9315"/>
</linearGradient>
<linearGradient id="paint1_linear_22_135" x1="487" y1="54" x2="508.667" y2="77.1111" gradientUnits="userSpaceOnUse">
<stop stop-color="#DE5B32"/>
<stop offset="1" stop-color="#FF9315"/>
</linearGradient>
</defs>
</svg>
