<svg width="210" height="130" viewBox="0 0 210 130" fill="none" xmlns="http://www.w3.org/2000/svg">
<path d="M25.7908 70.448C22.8468 70.448 20.2014 69.936 17.8548 68.912C15.5508 67.8453 13.7374 66.3947 12.4148 64.56C11.0921 62.6827 10.4094 60.528 10.3668 58.096H16.5748C16.7881 60.1867 17.6414 61.9573 19.1348 63.408C20.6708 64.816 22.8894 65.52 25.7908 65.52C28.5641 65.52 30.7401 64.8373 32.3188 63.472C33.9401 62.064 34.7508 60.272 34.7508 58.096C34.7508 56.3893 34.2814 55.0027 33.3428 53.936C32.4041 52.8693 31.2308 52.0587 29.8228 51.504C28.4148 50.9493 26.5161 50.352 24.1268 49.712C21.1828 48.944 18.8148 48.176 17.0228 47.408C15.2734 46.64 13.7588 45.4453 12.4788 43.824C11.2414 42.16 10.6228 39.9413 10.6228 37.168C10.6228 34.736 11.2414 32.5813 12.4788 30.704C13.7161 28.8267 15.4441 27.376 17.6628 26.352C19.9241 25.328 22.5054 24.816 25.4068 24.816C29.5881 24.816 33.0014 25.8613 35.6468 27.952C38.3348 30.0427 39.8494 32.816 40.1908 36.272H33.7908C33.5774 34.5653 32.6814 33.072 31.1028 31.792C29.5241 30.4693 27.4334 29.808 24.8308 29.808C22.3988 29.808 20.4148 30.448 18.8788 31.728C17.3428 32.9653 16.5748 34.7147 16.5748 36.976C16.5748 38.5973 17.0228 39.92 17.9188 40.944C18.8574 41.968 19.9881 42.7573 21.3108 43.312C22.6761 43.824 24.5748 44.4213 27.0068 45.104C29.9508 45.9147 32.3188 46.7253 34.1108 47.536C35.9028 48.304 37.4388 49.52 38.7188 51.184C39.9988 52.8053 40.6388 55.024 40.6388 57.84C40.6388 60.016 40.0628 62.064 38.9108 63.984C37.7588 65.904 36.0521 67.4613 33.7908 68.656C31.5294 69.8507 28.8628 70.448 25.7908 70.448ZM69.4333 70.448C65.2946 70.448 61.5186 69.488 58.1053 67.568C54.6919 65.6053 51.9826 62.896 49.9773 59.44C48.0146 55.9413 47.0333 52.016 47.0333 47.664C47.0333 43.312 48.0146 39.408 49.9773 35.952C51.9826 32.4533 54.6919 29.744 58.1053 27.824C61.5186 25.8613 65.2946 24.88 69.4333 24.88C73.6146 24.88 77.4119 25.8613 80.8253 27.824C84.2386 29.744 86.9266 32.432 88.8893 35.888C90.8519 39.344 91.8333 43.2693 91.8333 47.664C91.8333 52.0587 90.8519 55.984 88.8893 59.44C86.9266 62.896 84.2386 65.6053 80.8253 67.568C77.4119 69.488 73.6146 70.448 69.4333 70.448ZM69.4333 65.392C72.5479 65.392 75.3426 64.6667 77.8173 63.216C80.3346 61.7653 82.2973 59.696 83.7053 57.008C85.1559 54.32 85.8813 51.2053 85.8813 47.664C85.8813 44.08 85.1559 40.9653 83.7053 38.32C82.2973 35.632 80.3559 33.5627 77.8813 32.112C75.4066 30.6613 72.5906 29.936 69.4333 29.936C66.2759 29.936 63.4599 30.6613 60.9853 32.112C58.5106 33.5627 56.5479 35.632 55.0973 38.32C53.6893 40.9653 52.9853 44.08 52.9853 47.664C52.9853 51.2053 53.6893 54.32 55.0973 57.008C56.5479 59.696 58.5106 61.7653 60.9853 63.216C63.5026 64.6667 66.3186 65.392 69.4333 65.392ZM105.346 65.264H120.962V70H99.5218V25.392H105.346V65.264ZM164.011 25.392L147.179 70H140.459L123.627 25.392H129.835L143.851 63.856L157.867 25.392H164.011ZM176.221 30.128V45.04H192.477V49.84H176.221V65.2H194.397V70H170.397V25.328H194.397V30.128H176.221Z" fill="url(#paint0_linear_22_134)"/>
<path d="M170.217 95.602C169.281 95.602 168.489 95.278 167.841 94.63C167.193 93.982 166.869 93.19 166.869 92.254C166.869 91.318 167.193 90.526 167.841 89.878C168.489 89.23 169.281 88.906 170.217 88.906C171.117 88.906 171.873 89.23 172.485 89.878C173.133 90.526 173.457 91.318 173.457 92.254C173.457 93.19 173.133 93.982 172.485 94.63C171.873 95.278 171.117 95.602 170.217 95.602ZM172.593 100.408V130H167.679V100.408H172.593ZM186.962 104.458V121.9C186.962 123.34 187.268 124.366 187.88 124.978C188.492 125.554 189.554 125.842 191.066 125.842H194.684V130H190.256C187.52 130 185.468 129.37 184.1 128.11C182.732 126.85 182.048 124.78 182.048 121.9V104.458H178.214V100.408H182.048V92.956H186.962V100.408H194.684V104.458H186.962Z" fill="#97959F"/>
<path d="M21.52 94.295C21.79 93.825 22.19 93.435 22.72 93.125C23.26 92.805 23.885 92.645 24.595 92.645C25.325 92.645 25.985 92.82 26.575 93.17C27.175 93.52 27.645 94.015 27.985 94.655C28.325 95.285 28.495 96.02 28.495 96.86C28.495 97.69 28.325 98.43 27.985 99.08C27.645 99.73 27.175 100.235 26.575 100.595C25.985 100.955 25.325 101.135 24.595 101.135C23.895 101.135 23.275 100.98 22.735 100.67C22.205 100.35 21.8 99.955 21.52 99.485V104.9H20.155V92.78H21.52V94.295ZM27.1 96.86C27.1 96.24 26.975 95.7 26.725 95.24C26.475 94.78 26.135 94.43 25.705 94.19C25.285 93.95 24.82 93.83 24.31 93.83C23.81 93.83 23.345 93.955 22.915 94.205C22.495 94.445 22.155 94.8 21.895 95.27C21.645 95.73 21.52 96.265 21.52 96.875C21.52 97.495 21.645 98.04 21.895 98.51C22.155 98.97 22.495 99.325 22.915 99.575C23.345 99.815 23.81 99.935 24.31 99.935C24.82 99.935 25.285 99.815 25.705 99.575C26.135 99.325 26.475 98.97 26.725 98.51C26.975 98.04 27.1 97.49 27.1 96.86ZM31.6567 89.9V101H30.2917V89.9H31.6567ZM33.4731 96.86C33.4731 96.02 33.6431 95.285 33.9831 94.655C34.3231 94.015 34.7881 93.52 35.3781 93.17C35.9781 92.82 36.6431 92.645 37.3731 92.645C38.0931 92.645 38.7181 92.8 39.2481 93.11C39.7781 93.42 40.1731 93.81 40.4331 94.28V92.78H41.8131V101H40.4331V99.47C40.1631 99.95 39.7581 100.35 39.2181 100.67C38.6881 100.98 38.0681 101.135 37.3581 101.135C36.6281 101.135 35.9681 100.955 35.3781 100.595C34.7881 100.235 34.3231 99.73 33.9831 99.08C33.6431 98.43 33.4731 97.69 33.4731 96.86ZM40.4331 96.875C40.4331 96.255 40.3081 95.715 40.0581 95.255C39.8081 94.795 39.4681 94.445 39.0381 94.205C38.6181 93.955 38.1531 93.83 37.6431 93.83C37.1331 93.83 36.6681 93.95 36.2481 94.19C35.8281 94.43 35.4931 94.78 35.2431 95.24C34.9931 95.7 34.8681 96.24 34.8681 96.86C34.8681 97.49 34.9931 98.04 35.2431 98.51C35.4931 98.97 35.8281 99.325 36.2481 99.575C36.6681 99.815 37.1331 99.935 37.6431 99.935C38.1531 99.935 38.6181 99.815 39.0381 99.575C39.4681 99.325 39.8081 98.97 40.0581 98.51C40.3081 98.04 40.4331 97.495 40.4331 96.875ZM45.7848 93.905V98.75C45.7848 99.15 45.8698 99.435 46.0398 99.605C46.2098 99.765 46.5048 99.845 46.9248 99.845H47.9298V101H46.6998C45.9398 101 45.3698 100.825 44.9898 100.475C44.6098 100.125 44.4198 99.55 44.4198 98.75V93.905H43.3548V92.78H44.4198V90.71H45.7848V92.78H47.9298V93.905H45.7848ZM52.9287 93.905H51.2037V101H49.8387V93.905H48.7737V92.78H49.8387V92.195C49.8387 91.275 50.0737 90.605 50.5437 90.185C51.0237 89.755 51.7887 89.54 52.8387 89.54V90.68C52.2387 90.68 51.8137 90.8 51.5637 91.04C51.3237 91.27 51.2037 91.655 51.2037 92.195V92.78H52.9287V93.905ZM58.1052 101.135C57.3352 101.135 56.6352 100.96 56.0052 100.61C55.3852 100.26 54.8952 99.765 54.5352 99.125C54.1852 98.475 54.0102 97.725 54.0102 96.875C54.0102 96.035 54.1902 95.295 54.5502 94.655C54.9202 94.005 55.4202 93.51 56.0502 93.17C56.6802 92.82 57.3852 92.645 58.1652 92.645C58.9452 92.645 59.6502 92.82 60.2802 93.17C60.9102 93.51 61.4052 94 61.7652 94.64C62.1352 95.28 62.3202 96.025 62.3202 96.875C62.3202 97.725 62.1302 98.475 61.7502 99.125C61.3802 99.765 60.8752 100.26 60.2352 100.61C59.5952 100.96 58.8852 101.135 58.1052 101.135ZM58.1052 99.935C58.5952 99.935 59.0552 99.82 59.4852 99.59C59.9152 99.36 60.2602 99.015 60.5202 98.555C60.7902 98.095 60.9252 97.535 60.9252 96.875C60.9252 96.215 60.7952 95.655 60.5352 95.195C60.2752 94.735 59.9352 94.395 59.5152 94.175C59.0952 93.945 58.6402 93.83 58.1502 93.83C57.6502 93.83 57.1902 93.945 56.7702 94.175C56.3602 94.395 56.0302 94.735 55.7802 95.195C55.5302 95.655 55.4052 96.215 55.4052 96.875C55.4052 97.545 55.5252 98.11 55.7652 98.57C56.0152 99.03 56.3452 99.375 56.7552 99.605C57.1652 99.825 57.6152 99.935 58.1052 99.935ZM65.48 94.115C65.72 93.645 66.06 93.28 66.5 93.02C66.95 92.76 67.495 92.63 68.135 92.63V94.04H67.775C66.245 94.04 65.48 94.87 65.48 96.53V101H64.115V92.78H65.48V94.115ZM79.5957 92.63C80.2357 92.63 80.8057 92.765 81.3057 93.035C81.8057 93.295 82.2007 93.69 82.4907 94.22C82.7807 94.75 82.9257 95.395 82.9257 96.155V101H81.5757V96.35C81.5757 95.53 81.3707 94.905 80.9607 94.475C80.5607 94.035 80.0157 93.815 79.3257 93.815C78.6157 93.815 78.0507 94.045 77.6307 94.505C77.2107 94.955 77.0007 95.61 77.0007 96.47V101H75.6507V96.35C75.6507 95.53 75.4457 94.905 75.0357 94.475C74.6357 94.035 74.0907 93.815 73.4007 93.815C72.6907 93.815 72.1257 94.045 71.7057 94.505C71.2857 94.955 71.0757 95.61 71.0757 96.47V101H69.7107V92.78H71.0757V93.965C71.3457 93.535 71.7057 93.205 72.1557 92.975C72.6157 92.745 73.1207 92.63 73.6707 92.63C74.3607 92.63 74.9707 92.785 75.5007 93.095C76.0307 93.405 76.4257 93.86 76.6857 94.46C76.9157 93.88 77.2957 93.43 77.8257 93.11C78.3557 92.79 78.9457 92.63 79.5957 92.63ZM88.6538 96.875C88.6538 96.025 88.8238 95.285 89.1638 94.655C89.5038 94.015 89.9738 93.52 90.5738 93.17C91.1838 92.82 91.8788 92.645 92.6588 92.645C93.6688 92.645 94.4988 92.89 95.1488 93.38C95.8088 93.87 96.2438 94.55 96.4538 95.42H94.9838C94.8438 94.92 94.5688 94.525 94.1588 94.235C93.7588 93.945 93.2588 93.8 92.6588 93.8C91.8788 93.8 91.2488 94.07 90.7688 94.61C90.2888 95.14 90.0488 95.895 90.0488 96.875C90.0488 97.865 90.2888 98.63 90.7688 99.17C91.2488 99.71 91.8788 99.98 92.6588 99.98C93.2588 99.98 93.7588 99.84 94.1588 99.56C94.5588 99.28 94.8338 98.88 94.9838 98.36H96.4538C96.2338 99.2 95.7938 99.875 95.1338 100.385C94.4738 100.885 93.6488 101.135 92.6588 101.135C91.8788 101.135 91.1838 100.96 90.5738 100.61C89.9738 100.26 89.5038 99.765 89.1638 99.125C88.8238 98.485 88.6538 97.735 88.6538 96.875ZM101.86 101.135C101.09 101.135 100.39 100.96 99.7601 100.61C99.1401 100.26 98.6501 99.765 98.2901 99.125C97.9401 98.475 97.7651 97.725 97.7651 96.875C97.7651 96.035 97.9451 95.295 98.3051 94.655C98.6751 94.005 99.1751 93.51 99.8051 93.17C100.435 92.82 101.14 92.645 101.92 92.645C102.7 92.645 103.405 92.82 104.035 93.17C104.665 93.51 105.16 94 105.52 94.64C105.89 95.28 106.075 96.025 106.075 96.875C106.075 97.725 105.885 98.475 105.505 99.125C105.135 99.765 104.63 100.26 103.99 100.61C103.35 100.96 102.64 101.135 101.86 101.135ZM101.86 99.935C102.35 99.935 102.81 99.82 103.24 99.59C103.67 99.36 104.015 99.015 104.275 98.555C104.545 98.095 104.68 97.535 104.68 96.875C104.68 96.215 104.55 95.655 104.29 95.195C104.03 94.735 103.69 94.395 103.27 94.175C102.85 93.945 102.395 93.83 101.905 93.83C101.405 93.83 100.945 93.945 100.525 94.175C100.115 94.395 99.7851 94.735 99.5351 95.195C99.2851 95.655 99.1601 96.215 99.1601 96.875C99.1601 97.545 99.2801 98.11 99.5201 98.57C99.7701 99.03 100.1 99.375 100.51 99.605C100.92 99.825 101.37 99.935 101.86 99.935ZM107.36 96.86C107.36 96.02 107.53 95.285 107.87 94.655C108.21 94.015 108.675 93.52 109.265 93.17C109.865 92.82 110.535 92.645 111.275 92.645C111.915 92.645 112.51 92.795 113.06 93.095C113.61 93.385 114.03 93.77 114.32 94.25V89.9H115.7V101H114.32V99.455C114.05 99.945 113.65 100.35 113.12 100.67C112.59 100.98 111.97 101.135 111.26 101.135C110.53 101.135 109.865 100.955 109.265 100.595C108.675 100.235 108.21 99.73 107.87 99.08C107.53 98.43 107.36 97.69 107.36 96.86ZM114.32 96.875C114.32 96.255 114.195 95.715 113.945 95.255C113.695 94.795 113.355 94.445 112.925 94.205C112.505 93.955 112.04 93.83 111.53 93.83C111.02 93.83 110.555 93.95 110.135 94.19C109.715 94.43 109.38 94.78 109.13 95.24C108.88 95.7 108.755 96.24 108.755 96.86C108.755 97.49 108.88 98.04 109.13 98.51C109.38 98.97 109.715 99.325 110.135 99.575C110.555 99.815 111.02 99.935 111.53 99.935C112.04 99.935 112.505 99.815 112.925 99.575C113.355 99.325 113.695 98.97 113.945 98.51C114.195 98.04 114.32 97.495 114.32 96.875ZM118.712 91.445C118.452 91.445 118.232 91.355 118.052 91.175C117.872 90.995 117.782 90.775 117.782 90.515C117.782 90.255 117.872 90.035 118.052 89.855C118.232 89.675 118.452 89.585 118.712 89.585C118.962 89.585 119.172 89.675 119.342 89.855C119.522 90.035 119.612 90.255 119.612 90.515C119.612 90.775 119.522 90.995 119.342 91.175C119.172 91.355 118.962 91.445 118.712 91.445ZM119.372 92.78V101H118.007V92.78H119.372ZM125.703 92.63C126.703 92.63 127.513 92.935 128.133 93.545C128.753 94.145 129.063 95.015 129.063 96.155V101H127.713V96.35C127.713 95.53 127.508 94.905 127.098 94.475C126.688 94.035 126.128 93.815 125.418 93.815C124.698 93.815 124.123 94.04 123.693 94.49C123.273 94.94 123.063 95.595 123.063 96.455V101H121.698V92.78H123.063V93.95C123.333 93.53 123.698 93.205 124.158 92.975C124.628 92.745 125.143 92.63 125.703 92.63ZM134.683 92.645C135.393 92.645 136.013 92.8 136.543 93.11C137.083 93.42 137.483 93.81 137.743 94.28V92.78H139.123V101.18C139.123 101.93 138.963 102.595 138.643 103.175C138.323 103.765 137.863 104.225 137.263 104.555C136.673 104.885 135.983 105.05 135.193 105.05C134.113 105.05 133.213 104.795 132.493 104.285C131.773 103.775 131.348 103.08 131.218 102.2H132.568C132.718 102.7 133.028 103.1 133.498 103.4C133.968 103.71 134.533 103.865 135.193 103.865C135.943 103.865 136.553 103.63 137.023 103.16C137.503 102.69 137.743 102.03 137.743 101.18V99.455C137.473 99.935 137.073 100.335 136.543 100.655C136.013 100.975 135.393 101.135 134.683 101.135C133.953 101.135 133.288 100.955 132.688 100.595C132.098 100.235 131.633 99.73 131.293 99.08C130.953 98.43 130.783 97.69 130.783 96.86C130.783 96.02 130.953 95.285 131.293 94.655C131.633 94.015 132.098 93.52 132.688 93.17C133.288 92.82 133.953 92.645 134.683 92.645ZM137.743 96.875C137.743 96.255 137.618 95.715 137.368 95.255C137.118 94.795 136.778 94.445 136.348 94.205C135.928 93.955 135.463 93.83 134.953 93.83C134.443 93.83 133.978 93.95 133.558 94.19C133.138 94.43 132.803 94.78 132.553 95.24C132.303 95.7 132.178 96.24 132.178 96.86C132.178 97.49 132.303 98.04 132.553 98.51C132.803 98.97 133.138 99.325 133.558 99.575C133.978 99.815 134.443 99.935 134.953 99.935C135.463 99.935 135.928 99.815 136.348 99.575C136.778 99.325 137.118 98.97 137.368 98.51C137.618 98.04 137.743 97.495 137.743 96.875ZM19.645 119.875C19.645 119.025 19.815 118.285 20.155 117.655C20.495 117.015 20.965 116.52 21.565 116.17C22.175 115.82 22.87 115.645 23.65 115.645C24.66 115.645 25.49 115.89 26.14 116.38C26.8 116.87 27.235 117.55 27.445 118.42H25.975C25.835 117.92 25.56 117.525 25.15 117.235C24.75 116.945 24.25 116.8 23.65 116.8C22.87 116.8 22.24 117.07 21.76 117.61C21.28 118.14 21.04 118.895 21.04 119.875C21.04 120.865 21.28 121.63 21.76 122.17C22.24 122.71 22.87 122.98 23.65 122.98C24.25 122.98 24.75 122.84 25.15 122.56C25.55 122.28 25.825 121.88 25.975 121.36H27.445C27.225 122.2 26.785 122.875 26.125 123.385C25.465 123.885 24.64 124.135 23.65 124.135C22.87 124.135 22.175 123.96 21.565 123.61C20.965 123.26 20.495 122.765 20.155 122.125C19.815 121.485 19.645 120.735 19.645 119.875ZM32.8513 124.135C32.0813 124.135 31.3813 123.96 30.7513 123.61C30.1313 123.26 29.6413 122.765 29.2813 122.125C28.9313 121.475 28.7563 120.725 28.7563 119.875C28.7563 119.035 28.9363 118.295 29.2963 117.655C29.6663 117.005 30.1663 116.51 30.7963 116.17C31.4263 115.82 32.1313 115.645 32.9113 115.645C33.6913 115.645 34.3963 115.82 35.0263 116.17C35.6563 116.51 36.1513 117 36.5113 117.64C36.8813 118.28 37.0663 119.025 37.0663 119.875C37.0663 120.725 36.8763 121.475 36.4963 122.125C36.1263 122.765 35.6213 123.26 34.9813 123.61C34.3413 123.96 33.6313 124.135 32.8513 124.135ZM32.8513 122.935C33.3413 122.935 33.8013 122.82 34.2313 122.59C34.6613 122.36 35.0063 122.015 35.2663 121.555C35.5363 121.095 35.6713 120.535 35.6713 119.875C35.6713 119.215 35.5413 118.655 35.2813 118.195C35.0213 117.735 34.6813 117.395 34.2613 117.175C33.8413 116.945 33.3863 116.83 32.8963 116.83C32.3963 116.83 31.9363 116.945 31.5163 117.175C31.1063 117.395 30.7763 117.735 30.5263 118.195C30.2763 118.655 30.1513 119.215 30.1513 119.875C30.1513 120.545 30.2713 121.11 30.5113 121.57C30.7613 122.03 31.0913 122.375 31.5013 122.605C31.9113 122.825 32.3613 122.935 32.8513 122.935ZM48.7461 115.63C49.3861 115.63 49.9561 115.765 50.4561 116.035C50.9561 116.295 51.3511 116.69 51.6411 117.22C51.9311 117.75 52.0761 118.395 52.0761 119.155V124H50.7261V119.35C50.7261 118.53 50.5211 117.905 50.1111 117.475C49.7111 117.035 49.1661 116.815 48.4761 116.815C47.7661 116.815 47.2011 117.045 46.7811 117.505C46.3611 117.955 46.1511 118.61 46.1511 119.47V124H44.8011V119.35C44.8011 118.53 44.5961 117.905 44.1861 117.475C43.7861 117.035 43.2411 116.815 42.5511 116.815C41.8411 116.815 41.2761 117.045 40.8561 117.505C40.4361 117.955 40.2261 118.61 40.2261 119.47V124H38.8611V115.78H40.2261V116.965C40.4961 116.535 40.8561 116.205 41.3061 115.975C41.7661 115.745 42.2711 115.63 42.8211 115.63C43.5111 115.63 44.1211 115.785 44.6511 116.095C45.1811 116.405 45.5761 116.86 45.8361 117.46C46.0661 116.88 46.4461 116.43 46.9761 116.11C47.5061 115.79 48.0961 115.63 48.7461 115.63ZM55.6802 117.295C55.9502 116.825 56.3502 116.435 56.8802 116.125C57.4202 115.805 58.0452 115.645 58.7552 115.645C59.4852 115.645 60.1452 115.82 60.7352 116.17C61.3352 116.52 61.8052 117.015 62.1452 117.655C62.4852 118.285 62.6552 119.02 62.6552 119.86C62.6552 120.69 62.4852 121.43 62.1452 122.08C61.8052 122.73 61.3352 123.235 60.7352 123.595C60.1452 123.955 59.4852 124.135 58.7552 124.135C58.0552 124.135 57.4352 123.98 56.8952 123.67C56.3652 123.35 55.9602 122.955 55.6802 122.485V127.9H54.3152V115.78H55.6802V117.295ZM61.2602 119.86C61.2602 119.24 61.1352 118.7 60.8852 118.24C60.6352 117.78 60.2952 117.43 59.8652 117.19C59.4452 116.95 58.9802 116.83 58.4702 116.83C57.9702 116.83 57.5052 116.955 57.0752 117.205C56.6552 117.445 56.3152 117.8 56.0552 118.27C55.8052 118.73 55.6802 119.265 55.6802 119.875C55.6802 120.495 55.8052 121.04 56.0552 121.51C56.3152 121.97 56.6552 122.325 57.0752 122.575C57.5052 122.815 57.9702 122.935 58.4702 122.935C58.9802 122.935 59.4452 122.815 59.8652 122.575C60.2952 122.325 60.6352 121.97 60.8852 121.51C61.1352 121.04 61.2602 120.49 61.2602 119.86ZM71.9519 119.575C71.9519 119.835 71.9369 120.11 71.9069 120.4H65.3369C65.3869 121.21 65.6619 121.845 66.1619 122.305C66.6719 122.755 67.2869 122.98 68.0069 122.98C68.5969 122.98 69.0869 122.845 69.4769 122.575C69.8769 122.295 70.1569 121.925 70.3169 121.465H71.7869C71.5669 122.255 71.1269 122.9 70.4669 123.4C69.8069 123.89 68.9869 124.135 68.0069 124.135C67.2269 124.135 66.5269 123.96 65.9069 123.61C65.2969 123.26 64.8169 122.765 64.4669 122.125C64.1169 121.475 63.9419 120.725 63.9419 119.875C63.9419 119.025 64.1119 118.28 64.4519 117.64C64.7919 117 65.2669 116.51 65.8769 116.17C66.4969 115.82 67.2069 115.645 68.0069 115.645C68.7869 115.645 69.4769 115.815 70.0769 116.155C70.6769 116.495 71.1369 116.965 71.4569 117.565C71.7869 118.155 71.9519 118.825 71.9519 119.575ZM70.5419 119.29C70.5419 118.77 70.4269 118.325 70.1969 117.955C69.9669 117.575 69.6519 117.29 69.2519 117.1C68.8619 116.9 68.4269 116.8 67.9469 116.8C67.2569 116.8 66.6669 117.02 66.1769 117.46C65.6969 117.9 65.4219 118.51 65.3519 119.29H70.5419ZM75.4186 116.905V121.75C75.4186 122.15 75.5036 122.435 75.6736 122.605C75.8436 122.765 76.1386 122.845 76.5586 122.845H77.5636V124H76.3336C75.5736 124 75.0036 123.825 74.6236 123.475C74.2436 123.125 74.0536 122.55 74.0536 121.75V116.905H72.9886V115.78H74.0536V113.71H75.4186V115.78H77.5636V116.905H75.4186ZM79.9225 114.445C79.6625 114.445 79.4425 114.355 79.2625 114.175C79.0825 113.995 78.9925 113.775 78.9925 113.515C78.9925 113.255 79.0825 113.035 79.2625 112.855C79.4425 112.675 79.6625 112.585 79.9225 112.585C80.1725 112.585 80.3825 112.675 80.5525 112.855C80.7325 113.035 80.8225 113.255 80.8225 113.515C80.8225 113.775 80.7325 113.995 80.5525 114.175C80.3825 114.355 80.1725 114.445 79.9225 114.445ZM80.5825 115.78V124H79.2175V115.78H80.5825ZM84.5739 116.905V121.75C84.5739 122.15 84.6589 122.435 84.8289 122.605C84.9989 122.765 85.2939 122.845 85.7139 122.845H86.7189V124H85.4889C84.7289 124 84.1589 123.825 83.7789 123.475C83.3989 123.125 83.2089 122.55 83.2089 121.75V116.905H82.1439V115.78H83.2089V113.71H84.5739V115.78H86.7189V116.905H84.5739ZM89.0778 114.445C88.8178 114.445 88.5978 114.355 88.4178 114.175C88.2378 113.995 88.1478 113.775 88.1478 113.515C88.1478 113.255 88.2378 113.035 88.4178 112.855C88.5978 112.675 88.8178 112.585 89.0778 112.585C89.3278 112.585 89.5378 112.675 89.7078 112.855C89.8878 113.035 89.9778 113.255 89.9778 113.515C89.9778 113.775 89.8878 113.995 89.7078 114.175C89.5378 114.355 89.3278 114.445 89.0778 114.445ZM89.7378 115.78V124H88.3728V115.78H89.7378ZM95.6492 124.135C94.8792 124.135 94.1792 123.96 93.5492 123.61C92.9292 123.26 92.4392 122.765 92.0792 122.125C91.7292 121.475 91.5542 120.725 91.5542 119.875C91.5542 119.035 91.7342 118.295 92.0942 117.655C92.4642 117.005 92.9642 116.51 93.5942 116.17C94.2242 115.82 94.9292 115.645 95.7092 115.645C96.4892 115.645 97.1942 115.82 97.8242 116.17C98.4542 116.51 98.9492 117 99.3092 117.64C99.6792 118.28 99.8642 119.025 99.8642 119.875C99.8642 120.725 99.6742 121.475 99.2942 122.125C98.9242 122.765 98.4192 123.26 97.7792 123.61C97.1392 123.96 96.4292 124.135 95.6492 124.135ZM95.6492 122.935C96.1392 122.935 96.5992 122.82 97.0292 122.59C97.4592 122.36 97.8042 122.015 98.0642 121.555C98.3342 121.095 98.4692 120.535 98.4692 119.875C98.4692 119.215 98.3392 118.655 98.0792 118.195C97.8192 117.735 97.4792 117.395 97.0592 117.175C96.6392 116.945 96.1842 116.83 95.6942 116.83C95.1942 116.83 94.7342 116.945 94.3142 117.175C93.9042 117.395 93.5742 117.735 93.3242 118.195C93.0742 118.655 92.9492 119.215 92.9492 119.875C92.9492 120.545 93.0692 121.11 93.3092 121.57C93.5592 122.03 93.8892 122.375 94.2992 122.605C94.7092 122.825 95.1592 122.935 95.6492 122.935ZM105.664 115.63C106.664 115.63 107.474 115.935 108.094 116.545C108.714 117.145 109.024 118.015 109.024 119.155V124H107.674V119.35C107.674 118.53 107.469 117.905 107.059 117.475C106.649 117.035 106.089 116.815 105.379 116.815C104.659 116.815 104.084 117.04 103.654 117.49C103.234 117.94 103.024 118.595 103.024 119.455V124H101.659V115.78H103.024V116.95C103.294 116.53 103.659 116.205 104.119 115.975C104.589 115.745 105.104 115.63 105.664 115.63Z" fill="#97959F"/>
<circle cx="170" cy="89" r="7" fill="url(#paint1_linear_22_134)"/>
<defs>
<linearGradient id="paint0_linear_22_134" x1="32.7721" y1="10" x2="186.066" y2="40.5396" gradientUnits="userSpaceOnUse">
<stop stop-color="#DE5B32"/>
<stop offset="1" stop-color="#FF9315"/>
</linearGradient>
<linearGradient id="paint1_linear_22_134" x1="163" y1="82" x2="174.667" y2="94.4444" gradientUnits="userSpaceOnUse">
<stop stop-color="#DE5B32"/>
<stop offset="1" stop-color="#FF9315"/>
</linearGradient>
</defs>
</svg>
