<svg width="324" height="181" viewBox="0 0 324 181" fill="none" xmlns="http://www.w3.org/2000/svg">
<path d="M112.775 16.76V59H101.767V16.76H112.775ZM85.6387 16.76V59H74.6307V16.76H85.6387ZM107.655 33.464V41.976H80.0067V33.464H107.655ZM160.531 59H149.203L146.259 49.464H131.795L128.787 59H117.715L132.563 16.76H145.747L160.531 59ZM133.843 41.976H144.211L139.027 24.888L133.843 41.976ZM201.321 46.904C200.51 49.848 199.209 52.28 197.417 54.2C195.625 56.0773 193.491 57.464 191.017 58.36C188.542 59.2133 185.811 59.64 182.825 59.64C178.558 59.64 174.867 58.7867 171.753 57.08C168.638 55.3307 166.249 52.8347 164.585 49.592C162.921 46.3493 162.089 42.4453 162.089 37.88C162.089 33.3147 162.921 29.4107 164.585 26.168C166.249 22.9253 168.638 20.4507 171.753 18.744C174.867 16.9947 178.537 16.12 182.761 16.12C185.705 16.12 188.414 16.5467 190.889 17.4C193.363 18.2107 195.454 19.4693 197.161 21.176C198.867 22.8827 200.083 25.08 200.809 27.768L191.145 31.672C190.547 29.0267 189.566 27.2133 188.201 26.232C186.878 25.2507 185.193 24.76 183.145 24.76C181.139 24.76 179.39 25.2507 177.897 26.232C176.446 27.2133 175.315 28.6853 174.505 30.648C173.737 32.568 173.353 34.9787 173.353 37.88C173.353 40.7387 173.715 43.1493 174.441 45.112C175.166 47.0747 176.254 48.5467 177.705 49.528C179.198 50.5093 181.033 51 183.209 51C185.257 51 186.985 50.4453 188.393 49.336C189.843 48.184 190.825 46.4347 191.337 44.088L201.321 46.904ZM245.779 16.76L225.939 40.504L225.235 38.84L215.187 51.064L213.075 42.168L233.555 16.76H245.779ZM218.451 16.76V59H207.443V16.76H218.451ZM229.523 30.712L246.547 59H234.067L221.267 36.856L229.523 30.712Z" fill="white"/>
<path d="M281.038 126.495C279.331 126.495 277.902 126.047 276.75 125.151C275.64 124.255 274.808 123.039 274.254 121.503C273.742 120.009 273.486 118.388 273.486 116.639C273.486 111.007 274.574 104.756 276.75 97.8866C278.968 91.0173 282.19 84.0626 286.414 77.0226C285.304 77.5346 283.939 78.452 282.318 79.7746C280.696 81.0546 278.947 82.5693 277.07 84.3186C275.235 86.068 273.379 87.9026 271.502 89.8226C269.624 91.7 267.854 93.556 266.19 95.3906C264.568 97.1826 263.16 98.7826 261.966 100.191C260.814 101.556 260.024 102.601 259.598 103.327C259.256 103.796 258.808 104.031 258.254 104.031C257.571 104.031 256.931 103.711 256.334 103.071C255.736 102.388 255.438 101.705 255.438 101.023C255.438 100.767 255.651 100.297 256.078 99.6146C256.248 99.2733 256.44 98.9106 256.654 98.5266C256.91 98.1 257.187 97.652 257.486 97.1826C258.083 96.2013 258.723 95.1133 259.406 93.9186C260.088 92.724 260.728 91.508 261.326 90.2706C261.582 89.6733 261.944 88.884 262.414 87.9026C262.883 86.8786 263.352 85.7906 263.822 84.6386C264.334 83.444 264.739 82.2706 265.038 81.1186C265.379 79.9666 265.55 78.9853 265.55 78.1746C265.55 76.8946 265.102 76.2546 264.206 76.2546C263.566 76.2546 262.499 76.6386 261.006 77.4066C259.043 78.516 256.952 80.0946 254.734 82.1426C252.558 84.148 250.382 86.4733 248.206 89.1186C246.03 91.7213 243.96 94.4946 241.998 97.4386C240.078 100.383 238.371 103.327 236.878 106.271C235.384 109.172 234.232 111.924 233.422 114.527C233.166 114.868 232.803 115.209 232.334 115.551C231.864 115.892 231.395 116.063 230.926 116.063C230.499 116.063 230.136 115.892 229.838 115.551C229.539 115.209 229.39 114.697 229.39 114.015C229.39 113.631 229.496 113.161 229.71 112.607C229.795 112.351 229.902 112.073 230.03 111.775C230.158 111.476 230.264 111.177 230.35 110.879C230.563 110.367 231.118 109.215 232.014 107.423C232.952 105.631 234.083 103.497 235.406 101.023C236.728 98.5053 238.179 95.732 239.758 92.7026C241.336 89.6733 242.894 86.6226 244.43 83.5506C245.496 81.4173 246.392 79.2626 247.118 77.0866C247.843 74.868 248.206 72.884 248.206 71.1346C248.206 69.3853 247.672 67.956 246.606 66.8466C245.539 65.7373 243.619 65.1826 240.846 65.1826C236.878 65.1826 232.739 65.6093 228.43 66.4626C224.163 67.2733 219.875 68.404 215.566 69.8546C211.299 71.3053 207.139 72.9906 203.086 74.9106C199.075 76.8306 195.342 78.9213 191.886 81.1826C188.43 83.4013 185.4 85.684 182.798 88.0306C180.195 90.3773 178.168 92.7026 176.718 95.0066C175.267 97.3106 174.542 99.508 174.542 101.599C174.542 101.855 174.542 102.111 174.542 102.367C174.584 102.58 174.627 102.793 174.67 103.007C174.883 104.201 175.395 105.033 176.206 105.503C177.059 105.929 178.019 106.143 179.086 106.143C179.982 106.143 180.92 106.057 181.902 105.887C182.926 105.673 183.843 105.46 184.654 105.247C184.739 105.247 184.803 105.247 184.846 105.247C184.931 105.204 184.995 105.183 185.038 105.183C185.294 105.183 185.528 105.225 185.742 105.311C185.955 105.396 186.147 105.481 186.318 105.567C186.574 105.737 186.702 105.929 186.702 106.143C186.702 106.484 186.467 106.719 185.998 106.847C183.95 107.572 181.752 107.935 179.406 107.935C177.912 107.935 176.483 107.721 175.118 107.295C173.795 106.868 172.707 106.143 171.854 105.119C171 104.095 170.574 102.729 170.574 101.023C170.574 98.804 171.363 96.4786 172.942 94.0466C174.52 91.6146 176.718 89.1826 179.534 86.7506C182.35 84.3186 185.614 81.972 189.326 79.7106C193.038 77.4066 197.027 75.2733 201.294 73.3106C205.603 71.3053 210.04 69.5773 214.606 68.1266C219.171 66.6333 223.715 65.4813 228.238 64.6706C232.76 63.8173 237.07 63.3906 241.166 63.3906C245.134 63.3906 247.95 64.0946 249.614 65.5026C251.278 66.868 252.11 68.724 252.11 71.0706C252.11 72.9053 251.704 74.932 250.894 77.1506C250.126 79.3266 249.123 81.588 247.886 83.9346C247.246 85.172 246.627 86.324 246.03 87.3906C245.475 88.4573 244.942 89.46 244.43 90.3986C246.179 88.2653 247.992 86.196 249.87 84.1906C251.79 82.1853 253.71 80.3933 255.63 78.8146C257.55 77.236 259.406 75.9773 261.198 75.0386C263.032 74.1 264.739 73.6306 266.318 73.6306C267.64 73.6306 268.579 73.9933 269.134 74.7186C269.688 75.4013 269.966 76.2973 269.966 77.4066C269.966 78.644 269.688 80.0733 269.134 81.6946C268.579 83.2733 267.918 84.852 267.15 86.4306C266.424 87.9666 265.742 89.3106 265.102 90.4626C264.504 91.572 263.928 92.6386 263.374 93.6626C262.819 94.644 262.264 95.6253 261.71 96.6066C263.075 95.2413 264.76 93.5346 266.766 91.4866C268.814 89.4386 270.968 87.3053 273.23 85.0866C275.107 83.2946 277.006 81.524 278.926 79.7746C280.846 78.0253 282.744 76.4253 284.622 74.9746C286.499 73.4813 288.248 72.2866 289.87 71.3906C290.339 71.1346 290.851 71.22 291.406 71.6466C292.003 72.0306 292.408 72.4573 292.622 72.9266C292.707 73.1826 292.75 73.4386 292.75 73.6946C292.75 74.2066 292.622 74.8253 292.366 75.5506C292.11 76.2333 291.683 76.8946 291.086 77.5346C288.995 79.8813 287.096 82.676 285.39 85.9186C283.683 89.1186 282.211 92.4893 280.974 96.0306C279.779 99.5293 278.862 102.964 278.222 106.335C277.582 109.705 277.262 112.735 277.262 115.423C277.262 118.153 277.603 120.308 278.286 121.887C279.011 123.508 280.056 124.319 281.422 124.319C282.36 124.319 283.427 124.084 284.622 123.615C285.816 123.145 287.011 122.548 288.206 121.823C289.4 121.14 290.424 120.457 291.278 119.775C291.363 119.689 291.47 119.647 291.598 119.647C291.768 119.647 291.875 119.711 291.918 119.839C292.003 119.967 292.067 120.073 292.11 120.159V120.351C292.11 120.564 292.046 120.777 291.918 120.991C291.747 121.204 291.342 121.588 290.702 122.143C290.062 122.74 289.251 123.359 288.27 123.999C287.288 124.681 286.179 125.257 284.942 125.727C283.704 126.239 282.403 126.495 281.038 126.495ZM300.872 114.335C299.89 114.335 298.952 114.228 298.056 114.015C297.16 113.801 296.349 113.481 295.624 113.055C293.746 111.86 292.808 110.281 292.808 108.319C292.808 106.783 293.32 105.225 294.344 103.647C295.41 102.025 296.776 100.489 298.44 99.0386C300.104 97.588 301.853 96.3933 303.688 95.4546C304.797 94.8573 305.906 94.4306 307.016 94.1746C308.125 93.9186 309.106 93.7906 309.96 93.7906C311.453 93.7906 312.434 94.0893 312.904 94.6866C313.416 95.2413 313.672 95.9026 313.672 96.6706C313.672 97.4813 313.416 98.2706 312.904 99.0386C312.392 99.764 311.666 100.489 310.728 101.215C309.106 102.537 306.888 103.711 304.072 104.735C301.298 105.759 298.44 106.484 295.496 106.911C295.069 107.764 294.856 108.553 294.856 109.279C294.941 110.473 295.56 111.327 296.712 111.839C297.906 112.308 299.229 112.543 300.68 112.543C301.192 112.543 301.682 112.521 302.152 112.479C302.621 112.436 303.069 112.372 303.496 112.287C305.629 111.86 307.805 111.092 310.024 109.983C312.285 108.873 314.461 107.593 316.552 106.143C318.642 104.692 320.52 103.241 322.184 101.791C322.44 101.705 322.61 101.663 322.696 101.663C322.994 101.663 323.144 101.812 323.144 102.111C323.144 102.324 323.058 102.537 322.888 102.751C322.589 103.263 321.97 103.924 321.032 104.735C320.136 105.545 319.112 106.377 317.96 107.231C316.808 108.041 315.677 108.831 314.568 109.599C313.501 110.324 312.605 110.879 311.88 111.263C310.344 112.116 308.594 112.841 306.632 113.439C304.669 114.036 302.749 114.335 300.872 114.335ZM296.584 105.119C297.949 104.777 299.528 104.351 301.32 103.839C303.112 103.284 304.818 102.644 306.44 101.919C308.061 101.151 309.277 100.319 310.088 99.4226C310.429 99.0813 310.664 98.74 310.792 98.3986C310.92 98.0146 310.984 97.6946 310.984 97.4386C310.984 97.2253 310.898 97.0333 310.728 96.8626C310.6 96.692 310.173 96.6066 309.448 96.6066C308.424 96.6066 307.101 97.0333 305.48 97.8866C303.858 98.6973 302.237 99.764 300.616 101.087C299.037 102.367 297.693 103.711 296.584 105.119Z" fill="white"/>
</svg>
