<svg width="502" height="185" viewBox="0 0 502 185" fill="none" xmlns="http://www.w3.org/2000/svg">
<path d="M59.2659 84V24.6H80.4159C87.4359 24.6 92.5659 26.07 95.8059 29.01C99.0459 31.95 100.666 35.94 100.666 40.98C100.666 43.98 99.7959 46.71 98.0559 49.17C96.3159 51.57 93.8559 53.1 90.6759 53.76V53.85C94.2159 54.51 97.0059 56.13 99.0459 58.71C101.146 61.23 102.196 64.11 102.196 67.35C102.196 72.39 100.306 76.44 96.5259 79.5C92.7459 82.5 87.3459 84 80.3259 84H59.2659ZM66.4659 77.25H82.0359C86.2959 77.25 89.4459 76.38 91.4859 74.64C93.5859 72.9 94.6359 70.47 94.6359 67.35C94.6359 64.17 93.5859 61.74 91.4859 60.06C89.4459 58.32 86.2959 57.45 82.0359 57.45H66.4659V77.25ZM66.4659 50.7H80.5059C88.9059 50.7 93.1059 47.46 93.1059 40.98C93.1059 34.56 88.9059 31.35 80.5059 31.35H66.4659V50.7ZM135.525 84.9C131.265 84.9 127.455 83.97 124.095 82.11C120.795 80.25 118.215 77.58 116.355 74.1C114.495 70.56 113.565 66.36 113.565 61.5C113.565 56.64 114.495 52.47 116.355 48.99C118.215 45.45 120.765 42.75 124.005 40.89C127.245 39.03 130.935 38.1 135.075 38.1C139.275 38.1 142.845 39 145.785 40.8C148.785 42.6 151.065 45.06 152.625 48.18C154.185 51.24 154.965 54.69 154.965 58.53C154.965 59.55 154.935 60.48 154.875 61.32C154.815 62.16 154.725 62.91 154.605 63.57H118.245V57.18H151.455L147.765 57.9C147.765 53.58 146.565 50.25 144.165 47.91C141.825 45.57 138.735 44.4 134.895 44.4C131.955 44.4 129.405 45.09 127.245 46.47C125.145 47.79 123.495 49.74 122.295 52.32C121.155 54.84 120.585 57.9 120.585 61.5C120.585 65.04 121.185 68.1 122.385 70.68C123.585 73.26 125.265 75.24 127.425 76.62C129.645 77.94 132.285 78.6 135.345 78.6C138.645 78.6 141.315 77.97 143.355 76.71C145.455 75.45 147.135 73.74 148.395 71.58L154.065 74.91C152.925 76.95 151.455 78.72 149.655 80.22C147.915 81.72 145.845 82.89 143.445 83.73C141.105 84.51 138.465 84.9 135.525 84.9ZM184.858 84.9C180.478 84.9 176.428 83.97 172.708 82.11C169.048 80.25 166.228 77.61 164.248 74.19L170.368 69.78C171.688 72.54 173.608 74.7 176.128 76.26C178.708 77.82 181.798 78.6 185.398 78.6C188.578 78.6 191.068 78 192.868 76.8C194.668 75.54 195.568 73.92 195.568 71.94C195.568 70.68 195.148 69.54 194.308 68.52C193.528 67.44 191.998 66.66 189.718 66.18L178.918 63.93C174.538 63.03 171.388 61.53 169.468 59.43C167.608 57.33 166.678 54.72 166.678 51.6C166.678 49.14 167.368 46.89 168.748 44.85C170.188 42.81 172.198 41.19 174.778 39.99C177.418 38.73 180.508 38.1 184.048 38.1C188.488 38.1 192.238 38.97 195.298 40.71C198.358 42.45 200.638 44.91 202.138 48.09L196.108 52.05C195.088 49.41 193.438 47.49 191.158 46.29C188.878 45.03 186.508 44.4 184.048 44.4C181.888 44.4 180.028 44.7 178.468 45.3C176.968 45.9 175.798 46.74 174.958 47.82C174.178 48.84 173.788 50.01 173.788 51.33C173.788 52.65 174.238 53.88 175.138 55.02C176.038 56.1 177.718 56.88 180.178 57.36L191.428 59.7C195.628 60.54 198.568 61.92 200.248 63.84C201.928 65.76 202.768 68.1 202.768 70.86C202.768 73.68 202.018 76.17 200.518 78.33C199.018 80.43 196.918 82.05 194.218 83.19C191.518 84.33 188.398 84.9 184.858 84.9ZM226.739 26.22V71.58C226.739 73.8 227.369 75.45 228.629 76.53C229.889 77.61 231.509 78.15 233.489 78.15C235.229 78.15 236.729 77.85 237.989 77.25C239.249 76.65 240.389 75.84 241.409 74.82L243.929 80.85C242.549 82.11 240.899 83.1 238.979 83.82C237.119 84.54 234.959 84.9 232.499 84.9C230.219 84.9 228.089 84.51 226.109 83.73C224.129 82.89 222.539 81.6 221.339 79.86C220.199 78.06 219.599 75.72 219.539 72.84V28.2L226.739 26.22ZM243.119 39V45.21H210.539V39H243.119Z" fill="white"/>
<path d="M202.609 97.88C204.865 97.88 206.809 98.384 208.441 99.392C210.097 100.376 211.369 101.78 212.257 103.604C213.169 105.428 213.625 107.6 213.625 110.12C213.625 112.64 213.169 114.812 212.257 116.636C211.369 118.46 210.097 119.876 208.441 120.884C206.809 121.868 204.865 122.36 202.609 122.36C200.353 122.36 198.397 121.868 196.741 120.884C195.109 119.876 193.837 118.46 192.925 116.636C192.037 114.812 191.593 112.64 191.593 110.12C191.593 107.6 192.037 105.428 192.925 103.604C193.837 101.78 195.109 100.376 196.741 99.392C198.397 98.384 200.353 97.88 202.609 97.88ZM202.609 100.58C200.977 100.58 199.561 100.964 198.361 101.732C197.161 102.476 196.237 103.568 195.589 105.008C194.941 106.424 194.617 108.128 194.617 110.12C194.617 112.112 194.941 113.828 195.589 115.268C196.237 116.684 197.161 117.776 198.361 118.544C199.561 119.288 200.977 119.66 202.609 119.66C204.265 119.66 205.681 119.288 206.857 118.544C208.057 117.776 208.981 116.684 209.629 115.268C210.277 113.828 210.601 112.112 210.601 110.12C210.601 108.128 210.277 106.424 209.629 105.008C208.981 103.568 208.057 102.476 206.857 101.732C205.681 100.964 204.265 100.58 202.609 100.58ZM226.73 95.54C227.354 95.54 227.942 95.612 228.494 95.756C229.046 95.9 229.478 96.104 229.79 96.368L229.034 98.708C228.746 98.516 228.434 98.384 228.098 98.312C227.762 98.216 227.39 98.168 226.982 98.168C225.95 98.168 225.146 98.42 224.57 98.924C223.994 99.404 223.706 100.184 223.706 101.264V104V104.936V122H220.826V100.976C220.826 100.184 220.946 99.452 221.186 98.78C221.426 98.108 221.786 97.532 222.266 97.052C222.77 96.572 223.394 96.2 224.138 95.936C224.882 95.672 225.746 95.54 226.73 95.54ZM229.718 104V106.484H217.226V104H229.718ZM260.643 98.24V100.94H252.363V122H249.483V100.94H241.203V98.24H260.643ZM264.422 122V95.72H267.302V106.7C267.926 105.62 268.754 104.84 269.786 104.36C270.818 103.88 271.946 103.64 273.17 103.64C274.466 103.64 275.642 103.892 276.698 104.396C277.754 104.876 278.594 105.62 279.218 106.628C279.866 107.636 280.19 108.92 280.19 110.48V122H277.31V111.488C277.31 109.496 276.878 108.116 276.014 107.348C275.174 106.556 274.13 106.16 272.882 106.16C272.018 106.16 271.154 106.364 270.29 106.772C269.426 107.18 268.706 107.852 268.13 108.788C267.578 109.7 267.302 110.924 267.302 112.46V122H264.422ZM294.235 122.36C292.531 122.36 291.007 121.988 289.663 121.244C288.343 120.5 287.311 119.432 286.567 118.04C285.823 116.624 285.451 114.944 285.451 113C285.451 111.056 285.823 109.388 286.567 107.996C287.311 106.58 288.331 105.5 289.627 104.756C290.923 104.012 292.399 103.64 294.055 103.64C295.735 103.64 297.163 104 298.339 104.72C299.539 105.44 300.451 106.424 301.075 107.672C301.699 108.896 302.011 110.276 302.011 111.812C302.011 112.22 301.999 112.592 301.975 112.928C301.951 113.264 301.915 113.564 301.867 113.828H287.323V111.272H300.607L299.131 111.56C299.131 109.832 298.651 108.5 297.691 107.564C296.755 106.628 295.519 106.16 293.983 106.16C292.807 106.16 291.787 106.436 290.923 106.988C290.083 107.516 289.423 108.296 288.943 109.328C288.487 110.336 288.259 111.56 288.259 113C288.259 114.416 288.499 115.64 288.979 116.672C289.459 117.704 290.131 118.496 290.995 119.048C291.883 119.576 292.939 119.84 294.163 119.84C295.483 119.84 296.551 119.588 297.367 119.084C298.207 118.58 298.879 117.896 299.383 117.032L301.651 118.364C301.195 119.18 300.607 119.888 299.887 120.488C299.191 121.088 298.363 121.556 297.403 121.892C296.467 122.204 295.411 122.36 294.235 122.36ZM343.266 98.24V122H340.53V107.06L340.854 100.796H340.818L333.006 122H330.558L322.746 100.796H322.71L323.034 107.06V122H320.298V98.24H324.726L329.946 112.676L331.746 118.616H331.818L333.654 112.712L338.838 98.24H343.266ZM357.655 103.64C359.359 103.64 360.859 104.012 362.155 104.756C363.475 105.5 364.507 106.58 365.251 107.996C365.995 109.388 366.367 111.056 366.367 113C366.367 114.944 365.995 116.624 365.251 118.04C364.507 119.432 363.475 120.5 362.155 121.244C360.859 121.988 359.359 122.36 357.655 122.36C355.975 122.36 354.475 121.988 353.155 121.244C351.835 120.5 350.803 119.432 350.059 118.04C349.315 116.624 348.943 114.944 348.943 113C348.943 111.056 349.315 109.388 350.059 107.996C350.803 106.58 351.835 105.5 353.155 104.756C354.475 104.012 355.975 103.64 357.655 103.64ZM357.655 106.124C356.431 106.124 355.387 106.4 354.523 106.952C353.659 107.504 352.987 108.296 352.507 109.328C352.051 110.336 351.823 111.56 351.823 113C351.823 114.416 352.051 115.64 352.507 116.672C352.987 117.704 353.659 118.496 354.523 119.048C355.387 119.6 356.431 119.876 357.655 119.876C358.879 119.876 359.923 119.6 360.787 119.048C361.651 118.496 362.311 117.704 362.767 116.672C363.247 115.64 363.487 114.416 363.487 113C363.487 111.56 363.247 110.336 362.767 109.328C362.311 108.296 361.651 107.504 360.787 106.952C359.923 106.4 358.879 106.124 357.655 106.124ZM371.789 122V104H374.309L374.561 108.032L374.093 107.636C374.477 106.676 374.993 105.908 375.641 105.332C376.289 104.732 377.033 104.3 377.873 104.036C378.737 103.772 379.625 103.64 380.537 103.64C381.833 103.64 383.009 103.892 384.065 104.396C385.121 104.876 385.961 105.62 386.585 106.628C387.233 107.636 387.557 108.92 387.557 110.48V122H384.677V111.488C384.677 109.496 384.245 108.116 383.381 107.348C382.541 106.556 381.497 106.16 380.249 106.16C379.385 106.16 378.521 106.364 377.657 106.772C376.793 107.18 376.073 107.84 375.497 108.752C374.945 109.664 374.669 110.888 374.669 112.424V122H371.789ZM398.08 98.888V117.032C398.08 117.92 398.332 118.58 398.836 119.012C399.34 119.444 399.988 119.66 400.78 119.66C401.476 119.66 402.076 119.54 402.58 119.3C403.084 119.06 403.54 118.736 403.948 118.328L404.956 120.74C404.404 121.244 403.744 121.64 402.976 121.928C402.232 122.216 401.368 122.36 400.384 122.36C399.472 122.36 398.62 122.204 397.828 121.892C397.036 121.556 396.4 121.04 395.92 120.344C395.464 119.624 395.224 118.688 395.2 117.536V99.68L398.08 98.888ZM404.632 104V106.484H391.6V104H404.632ZM408.914 122V95.72H411.794V106.7C412.418 105.62 413.246 104.84 414.278 104.36C415.31 103.88 416.438 103.64 417.662 103.64C418.958 103.64 420.134 103.892 421.19 104.396C422.246 104.876 423.086 105.62 423.71 106.628C424.358 107.636 424.682 108.92 424.682 110.48V122H421.802V111.488C421.802 109.496 421.37 108.116 420.506 107.348C419.666 106.556 418.622 106.16 417.374 106.16C416.51 106.16 415.646 106.364 414.782 106.772C413.918 107.18 413.198 107.852 412.622 108.788C412.07 109.7 411.794 110.924 411.794 112.46V122H408.914Z" fill="white"/>
<path d="M69.9698 114.6V117.6H60.7698V141H57.5698V117.6H48.3698V114.6H69.9698ZM75.5505 141V114.6H94.0705V117.6H78.7505V126.12H90.6705V129.12H78.7505V138H94.6705V141H75.5505ZM122.098 141H118.698L115.898 133.68H103.938L101.138 141H97.7783L108.058 114.6H111.858L122.098 141ZM105.098 130.68H114.738L109.898 117.68L105.098 130.68ZM152.985 114.6V141H149.945V124.4L150.305 117.44H150.265L141.585 141H138.865L130.185 117.44H130.145L130.505 124.4V141H127.465V114.6H132.385L138.185 130.64L140.185 137.24H140.265L142.305 130.68L148.065 114.6H152.985ZM170.085 114.2C172.405 114.2 174.405 114.68 176.085 115.64C177.765 116.573 179.165 117.96 180.285 119.8L177.605 121.88C176.618 120.173 175.498 118.973 174.245 118.28C173.018 117.56 171.525 117.2 169.765 117.2C168.352 117.2 167.178 117.4 166.245 117.8C165.338 118.2 164.672 118.733 164.245 119.4C163.818 120.04 163.605 120.773 163.605 121.6C163.605 122.533 163.898 123.36 164.485 124.08C165.072 124.773 166.245 125.32 168.005 125.72L173.725 127C176.258 127.56 178.018 128.413 179.005 129.56C180.018 130.68 180.525 132.08 180.525 133.76C180.525 135.253 180.098 136.587 179.245 137.76C178.418 138.907 177.245 139.8 175.725 140.44C174.205 141.08 172.418 141.4 170.365 141.4C168.445 141.4 166.752 141.147 165.285 140.64C163.845 140.107 162.605 139.4 161.565 138.52C160.525 137.64 159.672 136.653 159.005 135.56L161.805 133.28C162.312 134.293 162.965 135.187 163.765 135.96C164.565 136.733 165.525 137.333 166.645 137.76C167.792 138.187 169.098 138.4 170.565 138.4C171.925 138.4 173.098 138.24 174.085 137.92C175.098 137.573 175.872 137.08 176.405 136.44C176.938 135.773 177.205 134.973 177.205 134.04C177.205 133.187 176.925 132.427 176.365 131.76C175.805 131.067 174.752 130.547 173.205 130.2L167.005 128.8C165.378 128.427 164.058 127.92 163.045 127.28C162.058 126.613 161.338 125.84 160.885 124.96C160.458 124.053 160.245 123.08 160.245 122.04C160.245 120.627 160.632 119.333 161.405 118.16C162.205 116.96 163.338 116 164.805 115.28C166.298 114.56 168.058 114.2 170.085 114.2Z" fill="url(#paint0_linear_105_1241)"/>
<defs>
<linearGradient id="paint0_linear_105_1241" x1="47" y1="114" x2="196.5" y2="128.5" gradientUnits="userSpaceOnUse">
<stop stop-color="#DE5B32"/>
<stop offset="1" stop-color="#FF9315"/>
</linearGradient>
</defs>
</svg>
