<svg width="503" height="137" viewBox="0 0 503 137" fill="none" xmlns="http://www.w3.org/2000/svg">
<path d="M168.13 59.96C165.101 59.96 162.263 59.2773 159.618 57.912C158.423 57.3147 157.421 56.6107 156.61 55.8C156.013 56.7813 155.266 57.656 154.37 58.424C153.602 58.9787 153.175 59.2773 153.09 59.32H151.49V47.16H154.05C154.69 49.2507 155.586 51.128 156.738 52.792C159.341 56.504 162.711 58.36 166.85 58.36C169.282 58.36 171.223 57.6347 172.674 56.184C174.125 54.7333 174.85 52.792 174.85 50.36C174.85 48.952 174.423 47.6933 173.57 46.584C172.759 45.4747 171.735 44.4933 170.498 43.64C169.261 42.7867 167.533 41.72 165.314 40.44C162.498 38.8613 160.215 37.432 158.466 36.152C156.717 34.872 155.223 33.272 153.986 31.352C152.749 29.3893 152.13 27.0853 152.13 24.44C152.13 22.3493 152.706 20.472 153.858 18.808C155.053 17.1013 156.823 15.7573 159.17 14.776C161.517 13.752 164.397 13.24 167.81 13.24C170.285 13.24 172.759 13.944 175.234 15.352C176.173 15.864 177.111 16.5467 178.05 17.4C178.775 16.2907 179.522 15.416 180.29 14.776C181.058 14.2213 181.485 13.9227 181.57 13.88H183.17V26.04H180.61C180.055 23.992 179.223 22.136 178.114 20.472C177.09 18.8507 175.81 17.5067 174.274 16.44C172.781 15.3733 171.053 14.84 169.09 14.84C167.426 14.84 165.997 15.5013 164.802 16.824C163.607 18.1467 163.01 19.832 163.01 21.88C163.01 23.4587 163.458 24.888 164.354 26.168C165.293 27.4053 166.423 28.4933 167.746 29.432C169.111 30.3707 170.946 31.5013 173.25 32.824C175.938 34.36 178.114 35.7253 179.778 36.92C181.442 38.1147 182.85 39.608 184.002 41.4C185.154 43.1493 185.73 45.176 185.73 47.48C185.73 49.784 185.069 51.896 183.746 53.816C182.423 55.6933 180.439 57.1867 177.794 58.296C175.149 59.4053 171.927 59.96 168.13 59.96ZM210.993 59.96C206.811 59.96 203.142 59.064 199.985 57.272C196.87 55.4373 194.459 52.7707 192.753 49.272C191.046 45.7733 190.193 41.5493 190.193 36.6C190.193 31.6507 191.046 27.4267 192.753 23.928C194.459 20.4293 196.87 17.784 199.985 15.992C203.142 14.1573 206.811 13.24 210.993 13.24C215.174 13.24 218.822 14.1573 221.937 15.992C225.094 17.784 227.526 20.4293 229.233 23.928C230.939 27.4267 231.793 31.6507 231.793 36.6C231.793 41.5493 230.939 45.7733 229.233 49.272C227.526 52.7707 225.094 55.4373 221.937 57.272C218.822 59.064 215.174 59.96 210.993 59.96ZM210.993 58.68C212.657 58.68 214.193 57.976 215.601 56.568C217.051 55.16 218.246 52.8133 219.185 49.528C220.123 46.2427 220.593 41.9333 220.593 36.6C220.593 31.2667 220.123 26.9573 219.185 23.672C218.246 20.3867 217.051 18.04 215.601 16.632C214.193 15.224 212.657 14.52 210.993 14.52C209.329 14.52 207.771 15.224 206.321 16.632C204.913 18.04 203.739 20.3867 202.801 23.672C201.862 26.9573 201.393 31.2667 201.393 36.6C201.393 41.9333 201.862 46.2427 202.801 49.528C203.739 52.8133 204.913 55.16 206.321 56.568C207.771 57.976 209.329 58.68 210.993 58.68ZM237.888 58.04L241.728 57.08V16.12L237.888 15.16V14.2H256.128V15.16L252.288 16.12V57.4H266.048C266.048 54.712 266.73 52.216 268.096 49.912C268.693 48.9307 269.397 48.12 270.208 47.48H272.128V59H237.888V58.04ZM271.858 16.12L268.657 15.16V14.2H276.338C278.556 14.2 280.37 14.712 281.778 15.736C283.186 16.7173 284.252 18.0187 284.978 19.64L296.306 45.432L306.738 17.08L301.938 15.16V14.2H313.778V15.16L308.658 17.08L292.978 59.64H291.058L271.858 16.12ZM315.7 58.04L319.54 57.08V16.12L315.7 15.16V14.2H349.94V25.72H348.02C347.209 25.08 346.505 24.2693 345.908 23.288C344.543 20.984 343.86 18.488 343.86 15.8H330.1V35.96H337.46C337.759 34.3387 338.313 32.824 339.124 31.416C339.465 30.776 339.871 30.1573 340.34 29.56H342.26V43.96H340.34C339.871 43.3627 339.465 42.744 339.124 42.104C338.313 40.696 337.759 39.1813 337.46 37.56H330.1V57.4H345.14C345.14 54.712 345.823 52.216 347.188 49.912C347.785 48.9307 348.489 48.12 349.3 47.48H351.22V59H315.7V58.04Z" fill="white"/>
<path d="M354.454 74.392C353.59 74.392 352.886 74.136 352.342 73.624C351.83 73.08 351.574 72.376 351.574 71.512C351.574 70.648 351.83 69.96 352.342 69.448C352.886 68.904 353.59 68.632 354.454 68.632C355.318 68.632 356.006 68.904 356.518 69.448C357.062 69.96 357.334 70.648 357.334 71.512C357.334 72.376 357.062 73.08 356.518 73.624C356.006 74.136 355.318 74.392 354.454 74.392ZM356.374 79V103H352.534V79H356.374ZM370.948 72.184V96.376C370.948 97.56 371.284 98.44 371.956 99.016C372.628 99.592 373.492 99.88 374.548 99.88C375.476 99.88 376.276 99.72 376.948 99.4C377.62 99.08 378.228 98.648 378.772 98.104L380.116 101.32C379.38 101.992 378.5 102.52 377.476 102.904C376.484 103.288 375.332 103.48 374.02 103.48C372.804 103.48 371.668 103.272 370.612 102.856C369.556 102.408 368.708 101.72 368.068 100.792C367.46 99.832 367.14 98.584 367.108 97.048V73.24L370.948 72.184ZM379.684 79V82.312H362.308V79H379.684Z" fill="white"/>
<path d="M387.151 55.896C387.087 55.896 387.055 55.864 387.055 55.8C387.055 55.672 387.119 55.528 387.247 55.368C387.823 54.344 388.111 53.512 388.111 52.872C388.111 51.656 387.407 50.824 385.999 50.376C384.591 49.896 382.847 49.656 380.767 49.656C379.103 49.656 377.311 49.768 375.391 49.992C373.503 50.216 371.647 50.488 369.823 50.808C368.031 51.128 366.415 51.448 364.975 51.768C363.535 52.088 362.431 52.344 361.663 52.536H361.519C361.263 52.536 361.039 52.44 360.847 52.248C360.687 52.056 360.607 51.848 360.607 51.624C360.607 51.4 360.671 51.192 360.799 51C360.959 50.808 361.215 50.648 361.567 50.52L363.775 50.136C364.575 49.88 365.455 49.432 366.415 48.792C367.375 48.152 368.319 47.576 369.247 47.064C370.783 46.2 372.287 45.24 373.759 44.184C375.231 43.128 376.799 41.912 378.463 40.536C383.487 36.568 385.999 33.608 385.999 31.656C385.999 30.376 385.087 29.736 383.263 29.736C381.599 29.736 379.999 29.96 378.463 30.408C376.959 30.824 375.583 31.352 374.335 31.992C373.119 32.632 372.111 33.24 371.311 33.816C370.511 34.392 369.983 34.824 369.727 35.112C370.111 35.432 370.463 35.784 370.783 36.168C371.135 36.552 371.423 36.952 371.647 37.368C371.967 37.976 372.127 38.488 372.127 38.904C372.127 39.256 372.015 39.528 371.791 39.72C371.567 39.88 371.279 39.96 370.927 39.96C370.447 39.96 369.903 39.8 369.295 39.48C368.719 39.16 368.239 38.712 367.855 38.136C367.503 37.56 367.391 36.92 367.519 36.216C367.583 35.96 367.663 35.672 367.759 35.352C367.887 35.032 368.063 34.776 368.287 34.584C368.127 34.456 367.951 34.312 367.759 34.152C367.599 33.96 367.391 33.752 367.135 33.528C367.007 33.432 366.943 33.336 366.943 33.24C366.943 33.08 367.039 33 367.231 33C367.391 33 367.535 33.064 367.663 33.192C368.047 33.64 368.415 33.976 368.767 34.2C368.991 33.944 369.471 33.496 370.207 32.856C370.975 32.184 372.031 31.496 373.375 30.792C374.751 30.088 376.399 29.56 378.319 29.208C378.863 29.112 379.535 29.016 380.335 28.92C381.135 28.824 381.951 28.776 382.783 28.776C383.743 28.776 384.639 28.888 385.471 29.112C386.335 29.304 387.023 29.688 387.535 30.264C388.047 30.808 388.239 31.608 388.111 32.664C387.823 33.944 387.119 35.192 385.999 36.408C384.911 37.624 383.567 38.824 381.967 40.008C380.367 41.192 378.655 42.344 376.831 43.464C375.039 44.552 373.295 45.608 371.599 46.632C369.903 47.624 368.415 48.584 367.135 49.512C369.343 49.096 371.551 48.744 373.759 48.456C375.999 48.168 378.191 48.024 380.335 48.024C382.223 48.024 384.047 48.168 385.807 48.456C386.543 48.584 387.295 48.936 388.063 49.512C388.831 50.088 389.215 50.904 389.215 51.96C389.215 52.44 389.103 52.952 388.879 53.496C388.687 54.072 388.335 54.712 387.823 55.416C387.599 55.736 387.375 55.896 387.151 55.896ZM370.735 38.856C370.927 38.856 371.023 38.712 371.023 38.424C371.023 38.168 370.959 37.88 370.831 37.56C370.607 37.208 370.383 36.888 370.159 36.6C369.935 36.312 369.615 36.008 369.199 35.688C369.199 35.816 369.215 36.168 369.247 36.744C369.311 37.288 369.599 37.88 370.111 38.52C370.367 38.744 370.575 38.856 370.735 38.856ZM395.884 51.48C395.244 51.48 394.924 51.144 394.924 50.472C394.924 50.216 394.972 49.976 395.068 49.752C395.228 49.304 395.564 49 396.076 48.84C396.62 48.68 397.1 48.632 397.516 48.696C397.804 48.728 397.948 48.92 397.948 49.272C397.948 49.56 397.852 49.896 397.66 50.28C397.468 50.664 397.196 50.952 396.844 51.144C396.524 51.368 396.204 51.48 395.884 51.48ZM411.553 53.4C410.561 53.368 409.601 53.128 408.673 52.68C407.777 52.264 407.057 51.704 406.513 51C405.713 49.848 405.313 48.504 405.313 46.968C405.313 46.648 405.329 46.328 405.361 46.008C405.393 45.656 405.441 45.304 405.505 44.952C405.953 42.904 406.721 41 407.809 39.24C408.897 37.48 410.305 35.816 412.033 34.248C412.961 33.512 414.017 32.808 415.201 32.136C416.417 31.464 417.761 30.824 419.233 30.216C420.609 29.576 421.921 29.144 423.169 28.92C424.417 28.664 425.505 28.536 426.433 28.536C427.553 28.536 428.097 28.648 428.065 28.872C428.033 28.968 427.969 29.032 427.873 29.064C427.777 29.064 427.681 29.08 427.585 29.112C425.409 29.336 423.201 29.928 420.961 30.888C418.753 31.816 416.673 33.048 414.721 34.584C412.769 36.088 411.105 37.832 409.729 39.816C408.353 41.8 407.425 43.976 406.945 46.344C406.849 46.76 406.801 47.192 406.801 47.64C406.801 48.92 407.201 50.056 408.001 51.048C408.833 52.04 410.161 52.536 411.985 52.536C413.393 52.536 414.913 52.216 416.545 51.576C418.177 50.936 419.809 50.072 421.441 48.984C423.105 47.896 424.641 46.664 426.049 45.288C427.457 43.912 428.641 42.488 429.601 41.016C430.561 39.512 431.185 38.04 431.473 36.6C431.537 36.248 431.585 35.912 431.617 35.592C431.649 35.272 431.665 34.968 431.665 34.68C431.665 33.784 431.425 33.08 430.945 32.568C430.465 32.056 429.569 31.8 428.257 31.8C427.041 31.8 425.521 32.072 423.697 32.616C421.905 33.16 420.065 33.992 418.177 35.112C417.825 35.304 417.265 35.688 416.497 36.264C415.761 36.84 414.993 37.48 414.193 38.184C413.393 38.856 412.753 39.48 412.273 40.056C412.241 40.088 412.209 40.104 412.177 40.104C411.825 40.104 411.841 39.816 412.225 39.24C412.609 38.664 413.233 37.976 414.097 37.176C414.961 36.376 415.905 35.64 416.929 34.968C418.273 34.136 419.633 33.432 421.009 32.856C422.417 32.28 423.729 31.832 424.945 31.512C426.193 31.192 427.233 31.032 428.065 31.032C430.049 31.032 431.425 31.496 432.193 32.424C432.961 33.32 433.345 34.392 433.345 35.64C433.345 35.928 433.329 36.216 433.297 36.504C433.265 36.792 433.217 37.08 433.153 37.368C432.769 39.032 432.065 40.664 431.041 42.264C430.017 43.832 428.769 45.32 427.297 46.728C425.825 48.104 424.209 49.304 422.449 50.328C420.689 51.352 418.865 52.136 416.977 52.68C415.121 53.256 413.313 53.496 411.553 53.4Z" fill="#FF9315"/>
</svg>
