<svg width="298" height="59" viewBox="0 0 298 59" fill="none" xmlns="http://www.w3.org/2000/svg">
<path d="M0.11975 29.248C0.11975 25.984 0.87175 23.056 2.37575 20.464C3.91175 17.872 5.97575 15.856 8.56775 14.416C11.1918 12.944 14.0558 12.208 17.1598 12.208C20.7118 12.208 23.8638 13.088 26.6158 14.848C29.3998 16.576 31.4158 19.04 32.6638 22.24H26.0878C25.2238 20.48 24.0238 19.168 22.4878 18.304C20.9518 17.44 19.1758 17.008 17.1598 17.008C14.9518 17.008 12.9838 17.504 11.2558 18.496C9.52775 19.488 8.16775 20.912 7.17575 22.768C6.21575 24.624 5.73575 26.784 5.73575 29.248C5.73575 31.712 6.21575 33.872 7.17575 35.728C8.16775 37.584 9.52775 39.024 11.2558 40.048C12.9838 41.04 14.9518 41.536 17.1598 41.536C19.1758 41.536 20.9518 41.104 22.4878 40.24C24.0238 39.376 25.2238 38.064 26.0878 36.304H32.6638C31.4158 39.504 29.3998 41.968 26.6158 43.696C23.8638 45.424 20.7118 46.288 17.1598 46.288C14.0238 46.288 11.1598 45.568 8.56775 44.128C5.97575 42.656 3.91175 40.624 2.37575 38.032C0.87175 35.44 0.11975 32.512 0.11975 29.248ZM62.8768 19.552L46.6528 58.432H40.9888L46.3648 45.568L35.9488 19.552H42.0448L49.4848 39.712L57.2128 19.552H62.8768ZM72.4783 23.488C73.4063 22.208 74.6703 21.168 76.2703 20.368C77.9023 19.536 79.7103 19.12 81.6943 19.12C84.0303 19.12 86.1423 19.68 88.0303 20.8C89.9183 21.92 91.4063 23.52 92.4943 25.6C93.5823 27.648 94.1263 30 94.1263 32.656C94.1263 35.312 93.5823 37.696 92.4943 39.808C91.4063 41.888 89.9023 43.52 87.9823 44.704C86.0943 45.856 83.9983 46.432 81.6943 46.432C79.6463 46.432 77.8223 46.032 76.2223 45.232C74.6543 44.432 73.4063 43.408 72.4783 42.16V46H67.0063V10.48H72.4783V23.488ZM88.5583 32.656C88.5583 30.832 88.1743 29.264 87.4062 27.952C86.6703 26.608 85.6783 25.6 84.4303 24.928C83.2143 24.224 81.9023 23.872 80.4943 23.872C79.1183 23.872 77.8063 24.224 76.5583 24.928C75.3423 25.632 74.3503 26.656 73.5823 28C72.8463 29.344 72.4783 30.928 72.4783 32.752C72.4783 34.576 72.8463 36.176 73.5823 37.552C74.3503 38.896 75.3423 39.92 76.5583 40.624C77.8063 41.328 79.1183 41.68 80.4943 41.68C81.9023 41.68 83.2143 41.328 84.4303 40.624C85.6783 39.888 86.6703 38.832 87.4062 37.456C88.1743 36.08 88.5583 34.48 88.5583 32.656ZM123.778 32.128C123.778 33.12 123.714 34.016 123.586 34.816H103.378C103.538 36.928 104.322 38.624 105.73 39.904C107.138 41.184 108.866 41.824 110.914 41.824C113.858 41.824 115.938 40.592 117.154 38.128H123.057C122.258 40.56 120.802 42.56 118.69 44.128C116.61 45.664 114.018 46.432 110.914 46.432C108.386 46.432 106.114 45.872 104.098 44.752C102.114 43.6 100.546 42 99.3935 39.952C98.2735 37.872 97.7135 35.472 97.7135 32.752C97.7135 30.032 98.2575 27.648 99.3455 25.6C100.466 23.52 102.018 21.92 104.002 20.8C106.018 19.68 108.322 19.12 110.914 19.12C113.41 19.12 115.634 19.664 117.586 20.752C119.538 21.84 121.058 23.376 122.146 25.36C123.234 27.312 123.778 29.568 123.778 32.128ZM118.066 30.4C118.034 28.384 117.314 26.768 115.906 25.552C114.498 24.336 112.754 23.728 110.674 23.728C108.786 23.728 107.17 24.336 105.826 25.552C104.482 26.736 103.682 28.352 103.426 30.4H118.066ZM134.635 23.392C135.435 22.048 136.491 21.008 137.803 20.272C139.147 19.504 140.731 19.12 142.555 19.12V24.784H141.163C139.019 24.784 137.387 25.328 136.267 26.416C135.179 27.504 134.635 29.392 134.635 32.08V46H129.163V19.552H134.635V23.392ZM221.911 19.552V46H216.439V42.88C215.575 43.968 214.439 44.832 213.031 45.472C211.655 46.08 210.183 46.384 208.615 46.384C206.535 46.384 204.663 45.952 202.999 45.088C201.367 44.224 200.071 42.944 199.111 41.248C198.183 39.552 197.719 37.504 197.719 35.104V19.552H203.143V34.288C203.143 36.656 203.735 38.48 204.919 39.76C206.103 41.008 207.719 41.632 209.767 41.632C211.815 41.632 213.431 41.008 214.615 39.76C215.831 38.48 216.439 36.656 216.439 34.288V19.552H221.911ZM253.371 32.128C253.371 33.12 253.307 34.016 253.179 34.816H232.971C233.131 36.928 233.915 38.624 235.323 39.904C236.731 41.184 238.459 41.824 240.507 41.824C243.451 41.824 245.531 40.592 246.747 38.128H252.651C251.851 40.56 250.395 42.56 248.283 44.128C246.203 45.664 243.611 46.432 240.507 46.432C237.979 46.432 235.707 45.872 233.691 44.752C231.707 43.6 230.139 42 228.987 39.952C227.867 37.872 227.307 35.472 227.307 32.752C227.307 30.032 227.851 27.648 228.939 25.6C230.059 23.52 231.611 21.92 233.595 20.8C235.611 19.68 237.915 19.12 240.507 19.12C243.003 19.12 245.227 19.664 247.179 20.752C249.131 21.84 250.651 23.376 251.739 25.36C252.827 27.312 253.371 29.568 253.371 32.128ZM247.659 30.4C247.627 28.384 246.907 26.768 245.499 25.552C244.091 24.336 242.347 23.728 240.267 23.728C238.379 23.728 236.763 24.336 235.419 25.552C234.075 26.736 233.275 28.352 233.019 30.4H247.659ZM268.356 46.432C266.276 46.432 264.404 46.064 262.74 45.328C261.108 44.56 259.812 43.536 258.852 42.256C257.892 40.944 257.38 39.488 257.316 37.888H262.98C263.076 39.008 263.604 39.952 264.564 40.72C265.556 41.456 266.788 41.824 268.26 41.824C269.796 41.824 270.98 41.536 271.812 40.96C272.676 40.352 273.108 39.584 273.108 38.656C273.108 37.664 272.628 36.928 271.668 36.448C270.74 35.968 269.252 35.44 267.204 34.864C265.22 34.32 263.604 33.792 262.356 33.28C261.108 32.768 260.02 31.984 259.092 30.928C258.196 29.872 257.748 28.48 257.748 26.752C257.748 25.344 258.164 24.064 258.996 22.912C259.828 21.728 261.012 20.8 262.548 20.128C264.116 19.456 265.908 19.12 267.924 19.12C270.932 19.12 273.348 19.888 275.172 21.424C277.028 22.928 278.02 24.992 278.148 27.616H272.676C272.58 26.432 272.1 25.488 271.236 24.784C270.372 24.08 269.204 23.728 267.732 23.728C266.292 23.728 265.188 24 264.42 24.544C263.652 25.088 263.268 25.808 263.268 26.704C263.268 27.408 263.524 28 264.036 28.48C264.548 28.96 265.172 29.344 265.908 29.632C266.644 29.888 267.732 30.224 269.172 30.64C271.092 31.152 272.66 31.68 273.876 32.224C275.124 32.736 276.196 33.504 277.092 34.528C277.988 35.552 278.452 36.912 278.484 38.608C278.484 40.112 278.068 41.456 277.236 42.64C276.404 43.824 275.22 44.752 273.684 45.424C272.18 46.096 270.404 46.432 268.356 46.432ZM290.781 24.016V38.656C290.781 39.648 291.005 40.368 291.453 40.816C291.933 41.232 292.733 41.44 293.853 41.44H297.213V46H292.893C290.429 46 288.541 45.424 287.229 44.272C285.917 43.12 285.261 41.248 285.261 38.656V24.016H282.141V19.552H285.261V12.976H290.781V19.552H297.213V24.016H290.781Z" fill="white"/>
<path d="M183.216 54.064L175.408 45.616C173.488 46.1707 171.376 46.448 169.072 46.448C164.934 46.448 161.115 45.488 157.616 43.568C154.16 41.6053 151.408 38.896 149.36 35.44C147.355 31.9413 146.352 28.016 146.352 23.664C146.352 19.312 147.355 15.408 149.36 11.952C151.408 8.496 154.16 5.808 157.616 3.888C161.115 1.92533 164.934 0.943996 169.072 0.943996C173.254 0.943996 177.072 1.92533 180.528 3.888C184.027 5.808 186.779 8.496 188.784 11.952C190.79 15.408 191.792 19.312 191.792 23.664C191.792 27.76 190.896 31.472 189.104 34.8C187.355 38.0853 184.923 40.7307 181.808 42.736L192.496 54.064H183.216ZM153.84 23.664C153.84 26.9493 154.48 29.8507 155.76 32.368C157.083 34.8427 158.896 36.7627 161.2 38.128C163.504 39.4507 166.128 40.112 169.072 40.112C172.016 40.112 174.64 39.4507 176.944 38.128C179.248 36.7627 181.04 34.8427 182.32 32.368C183.643 29.8507 184.304 26.9493 184.304 23.664C184.304 20.3787 183.643 17.4987 182.32 15.024C181.04 12.5493 179.248 10.6507 176.944 9.328C174.64 8.00533 172.016 7.344 169.072 7.344C166.128 7.344 163.504 8.00533 161.2 9.328C158.896 10.6507 157.083 12.5493 155.76 15.024C154.48 17.4987 153.84 20.3787 153.84 23.664Z" fill="#4958E2"/>
</svg>
