<svg width="173" height="44" viewBox="0 0 173 44" fill="none" xmlns="http://www.w3.org/2000/svg">
<path d="M38.8785 0.759998V43H27.8705V0.759998H38.8785ZM11.7425 0.759998V43H0.7345V0.759998H11.7425ZM33.7585 17.464V25.976H6.1105V17.464H33.7585ZM86.6345 43H75.3065L72.3625 33.464H57.8985L54.8905 43H43.8185L58.6665 0.759998H71.8505L86.6345 43ZM59.9465 25.976H70.3145L65.1305 8.888L59.9465 25.976ZM127.425 30.904C126.614 33.848 125.313 36.28 123.521 38.2C121.729 40.0773 119.595 41.464 117.121 42.36C114.646 43.2133 111.915 43.64 108.929 43.64C104.662 43.64 100.971 42.7867 97.8565 41.08C94.7418 39.3307 92.3525 36.8347 90.6885 33.592C89.0245 30.3493 88.1925 26.4453 88.1925 21.88C88.1925 17.3147 89.0245 13.4107 90.6885 10.168C92.3525 6.92533 94.7418 4.45066 97.8565 2.744C100.971 0.994666 104.641 0.119999 108.865 0.119999C111.809 0.119999 114.518 0.546665 116.993 1.4C119.467 2.21066 121.558 3.46933 123.265 5.176C124.971 6.88267 126.187 9.08 126.913 11.768L117.249 15.672C116.651 13.0267 115.67 11.2133 114.305 10.232C112.982 9.25067 111.297 8.76 109.249 8.76C107.243 8.76 105.494 9.25067 104.001 10.232C102.55 11.2133 101.419 12.6853 100.609 14.648C99.8405 16.568 99.4565 18.9787 99.4565 21.88C99.4565 24.7387 99.8192 27.1493 100.545 29.112C101.27 31.0747 102.358 32.5467 103.809 33.528C105.302 34.5093 107.137 35 109.313 35C111.361 35 113.089 34.4453 114.497 33.336C115.947 32.184 116.929 30.4347 117.441 28.088L127.425 30.904ZM171.883 0.759998L152.043 24.504L151.339 22.84L141.291 35.064L139.179 26.168L159.659 0.759998H171.883ZM144.555 0.759998V43H133.547V0.759998H144.555ZM155.627 14.712L172.651 43H160.171L147.371 20.856L155.627 14.712Z" fill="white"/>
</svg>
