<svg width="135" height="121" viewBox="0 0 135 121" fill="none" xmlns="http://www.w3.org/2000/svg">
<path d="M35.8728 2.64V36H30.4008V21.408H14.7048V36H9.23281V2.64H14.7048V16.944H30.4008V2.64H35.8728ZM41.2526 22.656C41.2526 20 41.7966 17.648 42.8846 15.6C44.0046 13.552 45.5086 11.968 47.3966 10.848C49.3166 9.696 51.4286 9.12 53.7326 9.12C55.8126 9.12 57.6206 9.536 59.1566 10.368C60.7246 11.168 61.9726 12.176 62.9006 13.392V9.552H68.4206V36H62.9006V32.064C61.9726 33.312 60.7086 34.352 59.1086 35.184C57.5086 36.016 55.6846 36.432 53.6366 36.432C51.3646 36.432 49.2846 35.856 47.3966 34.704C45.5086 33.52 44.0046 31.888 42.8846 29.808C41.7966 27.696 41.2526 25.312 41.2526 22.656ZM62.9006 22.752C62.9006 20.928 62.5166 19.344 61.7486 18C61.0126 16.656 60.0366 15.632 58.8206 14.928C57.6046 14.224 56.2926 13.872 54.8846 13.872C53.4766 13.872 52.1646 14.224 50.9486 14.928C49.7326 15.6 48.7406 16.608 47.9726 17.952C47.2366 19.264 46.8686 20.832 46.8686 22.656C46.8686 24.48 47.2366 26.08 47.9726 27.456C48.7406 28.832 49.7326 29.888 50.9486 30.624C52.1966 31.328 53.5086 31.68 54.8846 31.68C56.2926 31.68 57.6046 31.328 58.8206 30.624C60.0366 29.92 61.0126 28.896 61.7486 27.552C62.5166 26.176 62.9006 24.576 62.9006 22.752ZM73.7838 22.752C73.7838 20.032 74.3278 17.648 75.4158 15.6C76.5358 13.52 78.0718 11.92 80.0238 10.8C81.9758 9.68 84.2158 9.12 86.7438 9.12C89.9438 9.12 92.5838 9.888 94.6638 11.424C96.7758 12.928 98.1998 15.088 98.9358 17.904H93.0318C92.5518 16.592 91.7838 15.568 90.7278 14.832C89.6718 14.096 88.3438 13.728 86.7438 13.728C84.5038 13.728 82.7118 14.528 81.3678 16.128C80.0558 17.696 79.3998 19.904 79.3998 22.752C79.3998 25.6 80.0558 27.824 81.3678 29.424C82.7118 31.024 84.5038 31.824 86.7438 31.824C89.9118 31.824 92.0078 30.432 93.0318 27.648H98.9358C98.1678 30.336 96.7278 32.48 94.6158 34.08C92.5038 35.648 89.8798 36.432 86.7438 36.432C84.2158 36.432 81.9758 35.872 80.0238 34.752C78.0718 33.6 76.5358 32 75.4158 29.952C74.3278 27.872 73.7838 25.472 73.7838 22.752ZM114.853 22.8L127.045 36H119.653L109.861 24.624V36H104.389V0.48H109.861V21.12L119.461 9.552H127.045L114.853 22.8Z" fill="white"/>
<path d="M10.9331 108.336C8.91706 108.336 7.14106 108 5.60506 107.328C4.10106 106.656 2.93306 105.712 2.10106 104.496C1.26906 103.28 0.853063 101.888 0.853063 100.32C0.853063 99.904 0.869063 99.584 0.901063 99.36H4.21306C4.14906 100.384 4.32506 101.376 4.74106 102.336C5.18906 103.264 5.94106 104.048 6.99706 104.688C8.08506 105.296 9.47706 105.6 11.1731 105.6C13.5411 105.6 15.4291 105.008 16.8371 103.824C18.2451 102.64 18.9491 101.04 18.9491 99.024C18.9491 97.808 18.6131 96.8 17.9411 96C17.3011 95.168 16.5011 94.496 15.5411 93.984C14.5811 93.44 13.2691 92.832 11.6051 92.16C9.65306 91.392 8.10106 90.688 6.94906 90.048C5.79706 89.376 4.83706 88.464 4.06906 87.312C3.33306 86.16 3.02906 84.688 3.15706 82.896C3.22106 81.168 3.73306 79.648 4.69306 78.336C5.68506 76.992 7.01306 75.952 8.67706 75.216C10.3731 74.448 12.2931 74.064 14.4371 74.064C16.5491 74.064 18.3571 74.432 19.8611 75.168C21.3971 75.872 22.5331 76.848 23.2691 78.096C24.0371 79.344 24.3731 80.72 24.2771 82.224H20.7731C20.8371 81.36 20.6291 80.512 20.1491 79.68C19.7011 78.848 18.9651 78.176 17.9411 77.664C16.9491 77.12 15.7171 76.848 14.2451 76.848C11.9731 76.848 10.1171 77.408 8.67706 78.528C7.23706 79.616 6.51706 81.104 6.51706 82.992C6.51706 84.112 6.83706 85.056 7.47706 85.824C8.11706 86.592 8.90106 87.232 9.82906 87.744C10.7571 88.256 12.0371 88.848 13.6691 89.52C15.5571 90.288 17.0771 91.008 18.2291 91.68C19.4131 92.352 20.4051 93.248 21.2051 94.368C22.0371 95.488 22.4531 96.896 22.4531 98.592C22.4531 99.008 22.4371 99.328 22.4051 99.552C22.2771 101.184 21.7331 102.672 20.7731 104.016C19.8131 105.36 18.4851 106.416 16.7891 107.184C15.1251 107.952 13.1731 108.336 10.9331 108.336ZM34.3766 87.552C35.4646 85.792 37.0166 84.336 39.0326 83.184C41.0806 82 43.3366 81.408 45.8006 81.408C48.9686 81.408 51.4966 82.352 53.3846 84.24C55.3046 86.096 56.2646 88.64 56.2646 91.872C56.2646 92.8 56.1686 93.792 55.9766 94.848C55.4966 97.536 54.5366 99.904 53.0966 101.952C51.6566 104 49.8806 105.584 47.7686 106.704C45.6886 107.824 43.4486 108.384 41.0486 108.384C38.5846 108.384 36.5526 107.808 34.9526 106.656C33.3526 105.472 32.2806 104 31.7366 102.24L28.5686 120.384H25.2086L32.0246 81.792H35.3846L34.3766 87.552ZM52.5686 94.848C52.7286 93.888 52.8086 93.072 52.8086 92.4C52.8086 89.872 52.0566 87.904 50.5526 86.496C49.0806 85.056 47.1286 84.336 44.6966 84.336C42.9046 84.336 41.1926 84.768 39.5606 85.632C37.9286 86.496 36.5366 87.728 35.3846 89.328C34.2326 90.928 33.4646 92.784 33.0806 94.896C32.9206 95.792 32.8406 96.592 32.8406 97.296C32.8406 99.792 33.5926 101.776 35.0966 103.248C36.6006 104.72 38.5526 105.456 40.9526 105.456C42.8086 105.456 44.5366 105.04 46.1366 104.208C47.7686 103.344 49.1446 102.112 50.2646 100.512C51.4166 98.88 52.1846 96.992 52.5686 94.848ZM66.8632 87.024C67.9192 85.2 69.2952 83.792 70.9912 82.8C72.6872 81.808 74.6552 81.312 76.8952 81.312L76.2712 84.816H75.3112C73.0072 84.816 71.0232 85.408 69.3592 86.592C67.6952 87.776 66.5432 89.728 65.9032 92.448L63.1672 108H59.8072L64.4152 81.792H67.7752L66.8632 87.024ZM84.3978 76.848C83.7898 76.848 83.2938 76.672 82.9098 76.32C82.5258 75.936 82.3338 75.44 82.3338 74.832C82.3338 74 82.6218 73.312 83.1978 72.768C83.7738 72.192 84.4618 71.904 85.2618 71.904C85.8698 71.904 86.3498 72.08 86.7018 72.432C87.0858 72.784 87.2778 73.248 87.2778 73.824C87.2778 74.656 86.9898 75.376 86.4138 75.984C85.8378 76.56 85.1658 76.848 84.3978 76.848ZM85.1658 81.792L80.5578 108H77.1978L81.8058 81.792H85.1658ZM105.207 81.312C107.895 81.312 110.039 82.048 111.639 83.52C113.271 84.96 114.087 87.072 114.087 89.856C114.087 90.88 114.007 91.808 113.847 92.64L111.111 108H107.799L110.439 93.024C110.567 92.288 110.631 91.504 110.631 90.672C110.631 88.56 110.055 86.96 108.903 85.872C107.751 84.784 106.135 84.24 104.055 84.24C101.527 84.24 99.3666 85.04 97.5746 86.64C95.7826 88.24 94.6146 90.592 94.0706 93.696V93.552L91.5266 108H88.1666L92.7746 81.792H96.1346L95.3186 86.304C96.4386 84.704 97.8626 83.472 99.5906 82.608C101.319 81.744 103.191 81.312 105.207 81.312ZM124.11 100.896C124.014 101.472 123.966 101.968 123.966 102.384C123.966 103.408 124.238 104.128 124.782 104.544C125.358 104.928 126.286 105.12 127.566 105.12H130.638L130.11 108H126.51C124.526 108 123.038 107.616 122.046 106.848C121.054 106.08 120.558 104.816 120.558 103.056C120.558 102.352 120.622 101.632 120.75 100.896L123.63 84.624H119.982L120.51 81.792H124.158L125.31 75.216H128.67L127.518 81.792H134.766L134.238 84.624H126.99L124.11 100.896Z" fill="#2CD029"/>
</svg>
