<svg width="41" height="41" viewBox="0 0 41 41" fill="none" xmlns="http://www.w3.org/2000/svg">
<g clip-path="url(#clip0_68_699)">
<path fill-rule="evenodd" clip-rule="evenodd" d="M20.517 0C9.17161 0 0 9.23923 0 20.6694C0 29.8062 5.87657 37.5402 14.0289 40.2776C15.0482 40.4833 15.4215 39.8328 15.4215 39.2856C15.4215 38.8064 15.3879 37.1639 15.3879 35.4526C9.68061 36.6848 8.49211 32.9887 8.49211 32.9887C7.57491 30.5932 6.2159 29.9775 6.2159 29.9775C4.3479 28.7113 6.35197 28.7113 6.35197 28.7113C8.42408 28.8482 9.51136 30.833 9.51136 30.833C11.3454 33.981 14.3006 33.0915 15.4896 32.5439C15.6592 31.2093 16.2031 30.2853 16.7805 29.7721C12.2285 29.293 7.43926 27.5136 7.43926 19.5741C7.43926 17.3156 8.25399 15.4677 9.54496 14.0306C9.34128 13.5174 8.62776 11.3953 9.74906 8.5551C9.74906 8.5551 11.4814 8.00747 15.3875 10.6768C17.0598 10.2243 18.7845 9.99416 20.517 9.99222C22.2493 9.99222 24.0153 10.232 25.646 10.6768C29.5525 8.00747 31.2849 8.5551 31.2849 8.5551C32.4062 11.3953 31.6922 13.5174 31.4885 14.0306C32.8135 15.4677 33.5947 17.3156 33.5947 19.5741C33.5947 27.5136 28.8054 29.2585 24.2194 29.7721C24.9669 30.4223 25.612 31.654 25.612 33.6047C25.612 36.3765 25.5784 38.6011 25.5784 39.2852C25.5784 39.8328 25.9521 40.4833 26.971 40.278C35.1233 37.5398 40.9999 29.8062 40.9999 20.6694C41.0335 9.23923 31.8283 0 20.517 0Z" fill="white"/>
</g>
<defs>
<clipPath id="clip0_68_699">
<rect width="41" height="41" fill="white"/>
</clipPath>
</defs>
</svg>
