<svg width="117" height="117" viewBox="0 0 117 117" fill="none" xmlns="http://www.w3.org/2000/svg">
<path d="M14.625 58.5C14.625 34.2685 34.2685 14.625 58.5 14.625C82.7315 14.625 102.375 34.2685 102.375 58.5C102.375 82.7315 82.7315 102.375 58.5 102.375C34.2685 102.375 14.625 82.7315 14.625 58.5Z" fill="#7E869E" fill-opacity="0.25"/>
<circle cx="58.5" cy="48.75" r="19.5" fill="#222222"/>
<path fill-rule="evenodd" clip-rule="evenodd" d="M92.4312 99.2369C92.4442 99.342 92.3898 99.4438 92.2944 99.4896C86.278 102.375 77.2666 102.375 62.3749 102.375H54.625C39.7337 102.375 30.7225 102.375 24.7061 99.4898C24.6107 99.4441 24.5562 99.3422 24.5693 99.2372C26.3958 84.5584 40.8903 73.125 58.5002 73.125C76.1101 73.125 90.6046 84.5582 92.4312 99.2369Z" fill="#222222"/>
</svg>
