<svg width="117" height="117" viewBox="0 0 117 117" fill="none" xmlns="http://www.w3.org/2000/svg">
<path d="M14.625 58.5C14.625 34.2685 34.2685 14.625 58.5 14.625C82.7315 14.625 102.375 34.2685 102.375 58.5C102.375 82.7315 82.7315 102.375 58.5 102.375C34.2685 102.375 14.625 82.7315 14.625 58.5Z" fill="#7E869E" fill-opacity="0.25"/>
<circle cx="58.5" cy="48.75" r="19.5" fill="#222222"/>
<path fill-rule="evenodd" clip-rule="evenodd" d="M92.4314 99.2369C92.4445 99.342 92.3901 99.4438 92.2946 99.4896C86.2782 102.375 77.2669 102.375 62.3752 102.375H54.6252C39.734 102.375 30.7227 102.375 24.7064 99.4898C24.6109 99.4441 24.5565 99.3422 24.5696 99.2372C26.396 84.5584 40.8905 73.125 58.5005 73.125C76.1104 73.125 90.6048 84.5582 92.4314 99.2369Z" fill="#222222"/>
</svg>
